<?xml version="1.0" encoding="UTF-8"?>
<!-- Generator: Adobe Illustrator 27.1.1, SVG Export Plug-In . SVG Version: 6.00 Build 0)  -->
<svg xmlns="http://www.w3.org/2000/svg" xmlns:xlink="http://www.w3.org/1999/xlink" version="1.1" id="Calque_1" x="0px" y="0px" viewBox="0 0 358.83 422.55" style="enable-background:new 0 0 358.83 422.55;" xml:space="preserve">
<style type="text/css">
	.st0{fill:#FFFFFF;}
	.st1{fill:none;stroke:#CDDACD;stroke-width:2;stroke-linecap:round;stroke-linejoin:round;}
	.st2{fill:#F6F8E8;}
	.st3{fill:none;stroke:#84AC8D;stroke-width:2;stroke-linecap:round;stroke-linejoin:round;}
	.st4{fill:none;stroke:#D86464;stroke-width:2;stroke-linecap:round;stroke-linejoin:round;}
	.st5{fill:none;stroke:#D86464;stroke-width:2;stroke-linecap:round;stroke-linejoin:round;stroke-dasharray:0,0,5.58,5.58;}
	.st6{fill:none;stroke:#D86464;stroke-width:2;stroke-linecap:round;stroke-linejoin:round;stroke-dasharray:0,0,5.11,5.11;}
	.st7{fill:none;stroke:#D86464;stroke-width:2;stroke-linecap:round;stroke-linejoin:round;stroke-dasharray:0,0,5.19,5.19;}
	.st8{fill:none;stroke:#D86464;stroke-width:2;stroke-linecap:round;stroke-linejoin:round;stroke-dasharray:0,0,4.9,4.9;}
	.st9{fill:none;stroke:#D86464;stroke-width:2;stroke-linecap:round;stroke-linejoin:round;stroke-dasharray:0,0,3.93,3.93;}
	.st10{fill:none;stroke:#D86464;stroke-width:2;stroke-linecap:round;stroke-linejoin:round;stroke-dasharray:0,0,3.16,3.16;}
	.st11{fill:none;stroke:#D86464;stroke-width:2;stroke-linecap:round;stroke-linejoin:round;stroke-dasharray:0,0,4.94,4.94;}
	.st12{fill:none;stroke:#D86464;stroke-width:2;stroke-linecap:round;stroke-linejoin:round;stroke-dasharray:0,0,5.28,5.28;}
	.st13{fill:none;stroke:#D86464;stroke-width:2;stroke-linecap:round;stroke-linejoin:round;stroke-dasharray:0,0,4.8,4.8;}
	.st14{fill:none;stroke:#D86464;stroke-width:2;stroke-linecap:round;stroke-linejoin:round;stroke-dasharray:0,0,4.74,4.74;}
	.st15{fill:none;stroke:#D86464;stroke-width:2;stroke-linecap:round;stroke-linejoin:round;stroke-dasharray:0,0,5.16,5.16;}
	.st16{fill:none;stroke:#D86464;stroke-width:2;stroke-linecap:round;stroke-linejoin:round;stroke-dasharray:0,0,2.78,2.78;}
	.st17{fill:none;stroke:#D86464;stroke-width:2;stroke-linecap:round;stroke-linejoin:round;stroke-dasharray:0,0,5,5;}
	.st18{fill:none;stroke:#2C4131;stroke-width:2;stroke-linecap:round;stroke-linejoin:round;}
	.st19{fill:#2C4131;}
	.st20{fill:none;stroke:#000000;stroke-width:2;stroke-linecap:round;stroke-linejoin:round;}
	.st21{fill:none;stroke:#D86464;stroke-width:2;stroke-linecap:round;stroke-linejoin:round;stroke-dasharray:0,5;}
	.st22{fill:#D86464;}
</style>
<rect class="st0" width="358.83" height="422.55"></rect>
<g>
	<line class="st1" x1="34.85" y1="314.88" x2="311.94" y2="314.88"></line>
	<line class="st1" x1="105" y1="26.82" x2="105" y2="337.94"></line>
	<line class="st1" x1="173.4" y1="26.82" x2="173.4" y2="337.94"></line>
	<line class="st1" x1="242.29" y1="26.82" x2="242.29" y2="337.94"></line>
	<line class="st1" x1="34.85" y1="290.76" x2="311.94" y2="290.76"></line>
	<line class="st1" x1="34.85" y1="269.41" x2="311.94" y2="269.41"></line>
	<line class="st1" x1="34.85" y1="226.59" x2="311.94" y2="226.59"></line>
	<line class="st1" x1="34.85" y1="183.21" x2="311.94" y2="183.21"></line>
	<line class="st1" x1="34.85" y1="158.82" x2="311.94" y2="158.82"></line>
	<line class="st1" x1="34.85" y1="137.65" x2="311.94" y2="137.65"></line>
	<line class="st1" x1="34.85" y1="95.12" x2="311.94" y2="95.12"></line>
	<line class="st1" x1="34.85" y1="52.59" x2="311.94" y2="52.59"></line>
	<line class="st1" x1="34.85" y1="31.71" x2="311.94" y2="31.71"></line>
</g>
<g>
	<path class="st2" d="M151.9,401.33v-28.82c0-4.64,3.77-8.41,8.41-8.41h82.3c4.64,0,8.41,3.77,8.41,8.41v28.82   c0,4.64-3.77,8.41-8.41,8.41h-82.3C155.67,409.74,151.9,405.98,151.9,401.33z"></path>
	<path class="st3" d="M202.02,337.94v26.16h40.59c4.65,0,8.41,3.77,8.41,8.41v28.82c0,4.65-3.77,8.41-8.41,8.41h-82.3   c-4.65,0-8.41-3.77-8.41-8.41v-28.82"></path>
</g>
<g>
	<line class="st4" x1="34.85" y1="296.41" x2="36.9" y2="297.85"></line>
	<polyline class="st4" points="42.66,301.91 44.71,303.35 47.02,302.41  "></polyline>
	<line class="st5" x1="52.19" y1="300.32" x2="70.28" y2="292.99"></line>
	<polyline class="st4" points="72.86,291.94 75.18,291 76.74,292.95  "></polyline>
	<line class="st6" x1="79.92" y1="296.95" x2="91.08" y2="310.93"></line>
	<polyline class="st4" points="92.68,312.93 94.24,314.88 95.4,312.67  "></polyline>
	<line class="st7" x1="97.82" y1="308.08" x2="115.98" y2="273.63"></line>
	<polyline class="st4" points="117.19,271.33 118.35,269.12 120.18,270.83  "></polyline>
	<polyline class="st8" points="123.76,274.18 131.29,281.24 140.12,281.24 152.47,270.53 153.63,269.98  "></polyline>
	<polyline class="st4" points="155.85,268.94 158.12,267.88 159.12,270.17  "></polyline>
	<line class="st9" x1="160.7" y1="273.77" x2="166.21" y2="286.38"></line>
	<polyline class="st4" points="167,288.18 168,290.47 170.5,290.47  "></polyline>
	<line class="st10" x1="173.66" y1="290.47" x2="178.39" y2="290.47"></line>
	<polyline class="st4" points="179.97,290.47 182.47,290.47 183.65,292.67  "></polyline>
	<line class="st11" x1="185.98" y1="297.03" x2="189.48" y2="303.56"></line>
	<polyline class="st4" points="190.64,305.74 191.82,307.94 194.32,307.97  "></polyline>
	<polyline class="st4" points="198.91,308.03 201.41,308.06 202.56,305.84  "></polyline>
	<line class="st12" x1="204.99" y1="301.15" x2="218.34" y2="275.33"></line>
	<polyline class="st4" points="219.56,272.99 220.71,270.76 221.75,273.04  "></polyline>
	<line class="st13" x1="223.76" y1="277.4" x2="230.78" y2="292.67"></line>
	<polyline class="st4" points="231.78,294.85 232.82,297.12 237.29,297 238.44,299.22  "></polyline>
	<line class="st14" x1="240.62" y1="303.43" x2="243.88" y2="309.74"></line>
	<polyline class="st4" points="244.97,311.84 246.12,314.06 246.67,311.62  "></polyline>
	<line class="st15" x1="247.81" y1="306.59" x2="270.11" y2="208.43"></line>
	<polyline class="st4" points="270.68,205.91 271.24,203.47 272.33,205.72  "></polyline>
	<line class="st16" x1="273.54" y1="208.22" x2="275.36" y2="211.97"></line>
	<polyline class="st4" points="275.97,213.22 277.06,215.47 279.56,215.41  "></polyline>
	<polyline class="st4" points="281.62,215.36 284.12,215.29 285.92,217.03  "></polyline>
	<polyline class="st4" points="287.61,218.67 289.41,220.41 289.7,217.93  "></polyline>
	<line class="st17" x1="290.29" y1="212.96" x2="308.77" y2="56.5"></line>
	<line class="st4" x1="309.06" y1="54.01" x2="309.35" y2="51.53"></line>
</g>
<polyline class="st18" points="34.85,291 60.35,304.06 115.06,298.68 145.15,298.06 181.85,283.15 215.74,278.03 280.76,217.24   311.94,84.62 "></polyline>
<g>
	<path class="st19" d="M166.78,384.17v-8.53h2.41c0.74,0,1.4,0.16,1.97,0.49c0.57,0.33,1.01,0.79,1.32,1.4   c0.31,0.61,0.47,1.3,0.47,2.09v0.54c0,0.8-0.16,1.51-0.47,2.12c-0.31,0.61-0.75,1.07-1.33,1.39c-0.58,0.32-1.25,0.49-2.01,0.5   L166.78,384.17L166.78,384.17z M167.9,376.56v6.69h1.18c0.87,0,1.54-0.27,2.02-0.81c0.48-0.54,0.72-1.31,0.72-2.31v-0.5   c0-0.97-0.23-1.72-0.68-2.26c-0.46-0.54-1.1-0.81-1.94-0.82L167.9,376.56L167.9,376.56z"></path>
	<path class="st19" d="M177.11,384.29c-0.86,0-1.56-0.28-2.1-0.85s-0.81-1.32-0.81-2.26v-0.2c0-0.63,0.12-1.19,0.36-1.68   s0.58-0.88,1.01-1.16s0.9-0.42,1.4-0.42c0.82,0,1.46,0.27,1.92,0.81c0.46,0.54,0.69,1.32,0.69,2.33v0.45h-4.29   c0.02,0.62,0.2,1.13,0.55,1.51c0.35,0.38,0.79,0.58,1.33,0.58c0.38,0,0.71-0.08,0.97-0.23s0.5-0.36,0.7-0.62l0.66,0.52   C178.97,383.89,178.17,384.29,177.11,384.29L177.11,384.29z M176.98,378.61c-0.44,0-0.8,0.16-1.1,0.48   c-0.3,0.32-0.48,0.76-0.55,1.34h3.18v-0.08c-0.03-0.55-0.18-0.98-0.45-1.28C177.79,378.77,177.44,378.62,176.98,378.61   L176.98,378.61z M177.51,375.18h1.31l-1.57,1.72h-0.87L177.51,375.18z"></path>
	<path class="st19" d="M186.2,381.07c0,0.97-0.22,1.75-0.67,2.33c-0.45,0.58-1.04,0.88-1.79,0.88c-0.8,0-1.42-0.28-1.86-0.85   l-0.05,0.73h-1v-9h1.08v3.36c0.44-0.54,1.04-0.81,1.81-0.81s1.37,0.29,1.81,0.87c0.44,0.58,0.66,1.38,0.66,2.39v0.09L186.2,381.07z    M185.12,380.95c0-0.74-0.14-1.31-0.43-1.71c-0.29-0.4-0.7-0.6-1.23-0.6c-0.71,0-1.23,0.33-1.54,1v2.74c0.33,0.66,0.85,1,1.55,1   c0.52,0,0.92-0.2,1.21-0.6C184.97,382.38,185.11,381.77,185.12,380.95L185.12,380.95z"></path>
	<path class="st19" d="M191.48,383.54c-0.42,0.5-1.04,0.74-1.86,0.74c-0.68,0-1.19-0.2-1.54-0.59c-0.35-0.39-0.53-0.97-0.54-1.74   v-4.12h1.08v4.1c0,0.96,0.39,1.44,1.17,1.44c0.83,0,1.38-0.31,1.65-0.93v-4.61h1.08v6.34h-1.03L191.48,383.54L191.48,383.54z"></path>
	<path class="st19" d="M195.65,376.29v1.54h1.18v0.84h-1.18v3.94c0,0.25,0.05,0.44,0.16,0.57s0.29,0.19,0.54,0.19   c0.12,0,0.3-0.02,0.52-0.07v0.87c-0.29,0.08-0.56,0.12-0.83,0.12c-0.48,0-0.85-0.15-1.1-0.44s-0.37-0.71-0.37-1.25v-3.93h-1.15   v-0.84h1.15v-1.54H195.65z"></path>
	<path class="st19" d="M200.81,380.95c0-0.97,0.23-1.75,0.69-2.35s1.06-0.89,1.81-0.89s1.33,0.25,1.76,0.76v-3.3h1.08v9h-1   l-0.05-0.68c-0.43,0.53-1.04,0.8-1.81,0.8s-1.33-0.3-1.8-0.9c-0.47-0.6-0.69-1.39-0.69-2.36v-0.08H200.81z M201.89,381.07   c0,0.72,0.15,1.28,0.45,1.69s0.71,0.61,1.23,0.61c0.69,0,1.19-0.31,1.51-0.93v-2.91c-0.32-0.6-0.82-0.9-1.49-0.9   c-0.53,0-0.95,0.21-1.24,0.62C202.06,379.66,201.9,380.27,201.89,381.07L201.89,381.07z"></path>
	<path class="st19" d="M210.47,384.29c-0.86,0-1.56-0.28-2.1-0.85s-0.81-1.32-0.81-2.26v-0.2c0-0.63,0.12-1.19,0.36-1.68   s0.58-0.88,1.01-1.16s0.9-0.42,1.4-0.42c0.82,0,1.46,0.27,1.92,0.81c0.46,0.54,0.69,1.32,0.69,2.33v0.45h-4.29   c0.02,0.62,0.2,1.13,0.55,1.51c0.35,0.38,0.79,0.58,1.33,0.58c0.38,0,0.71-0.08,0.97-0.23s0.5-0.36,0.7-0.62l0.66,0.52   C212.33,383.89,211.53,384.29,210.47,384.29L210.47,384.29z M210.34,378.61c-0.44,0-0.8,0.16-1.1,0.48   c-0.3,0.32-0.48,0.76-0.55,1.34h3.18v-0.08c-0.03-0.55-0.18-0.98-0.45-1.28C211.15,378.77,210.8,378.62,210.34,378.61   L210.34,378.61z"></path>
	<path class="st19" d="M218.35,384.17h-1.08v-9h1.08V384.17z"></path>
	<path class="st19" d="M220.16,378.04l-0.62-0.42c0.36-0.51,0.55-1.04,0.56-1.61v-0.84h1.07v0.76c0,0.39-0.1,0.78-0.29,1.17   C220.69,377.49,220.45,377.8,220.16,378.04L220.16,378.04z"></path>
	<path class="st19" d="M224.76,384.29c-0.86,0-1.56-0.28-2.1-0.85s-0.81-1.32-0.81-2.26v-0.2c0-0.63,0.12-1.19,0.36-1.68   s0.58-0.88,1.01-1.16s0.9-0.42,1.4-0.42c0.82,0,1.46,0.27,1.92,0.81c0.46,0.54,0.69,1.32,0.69,2.33v0.45h-4.29   c0.02,0.62,0.2,1.13,0.55,1.51c0.35,0.38,0.79,0.58,1.33,0.58c0.38,0,0.71-0.08,0.97-0.23s0.5-0.36,0.7-0.62l0.66,0.52   C226.62,383.89,225.82,384.29,224.76,384.29L224.76,384.29z M225.24,376.89h-0.93l-1.51-1.72h1.31l1.14,1.72H225.24z M224.62,378.6   c-0.44,0-0.8,0.16-1.1,0.48c-0.3,0.32-0.48,0.76-0.55,1.34h3.18v-0.08c-0.03-0.55-0.18-0.98-0.45-1.28   c-0.27-0.3-0.62-0.45-1.08-0.45L224.62,378.6z"></path>
	<path class="st19" d="M231.55,378.8c-0.16-0.03-0.34-0.04-0.53-0.04c-0.71,0-1.19,0.3-1.45,0.91v4.5h-1.08v-6.34h1.05l0.02,0.73   c0.36-0.57,0.86-0.85,1.51-0.85c0.21,0,0.37,0.03,0.48,0.08V378.8z"></path>
	<path class="st19" d="M235.07,384.29c-0.86,0-1.56-0.28-2.1-0.85s-0.81-1.32-0.81-2.26v-0.2c0-0.63,0.12-1.19,0.36-1.68   s0.58-0.88,1.01-1.16s0.9-0.42,1.4-0.42c0.82,0,1.46,0.27,1.92,0.81c0.46,0.54,0.69,1.32,0.69,2.33v0.45h-4.29   c0.02,0.62,0.2,1.13,0.55,1.51c0.35,0.38,0.79,0.58,1.33,0.58c0.38,0,0.71-0.08,0.97-0.23s0.5-0.36,0.7-0.62l0.66,0.52   C236.93,383.89,236.13,384.29,235.07,384.29L235.07,384.29z M234.94,378.61c-0.44,0-0.8,0.16-1.1,0.48   c-0.3,0.32-0.48,0.76-0.55,1.34h3.18v-0.08c-0.03-0.55-0.18-0.98-0.45-1.28C235.75,378.77,235.4,378.62,234.94,378.61   L234.94,378.61z"></path>
	<path class="st19" d="M173.44,390.55c0-0.18,0.05-0.32,0.16-0.45c0.11-0.13,0.27-0.18,0.48-0.18s0.37,0.06,0.48,0.18   s0.16,0.27,0.16,0.45s-0.05,0.32-0.16,0.44s-0.27,0.18-0.48,0.18s-0.37-0.06-0.48-0.18S173.44,390.73,173.44,390.55z    M174.61,398.57h-1.08v-6.34h1.08V398.57z"></path>
	<path class="st19" d="M177.37,392.23l0.04,0.8c0.48-0.61,1.12-0.91,1.9-0.91c1.34,0,2.02,0.76,2.03,2.27v4.19h-1.08v-4.2   c0-0.46-0.11-0.79-0.31-1.01s-0.52-0.33-0.96-0.33c-0.35,0-0.66,0.09-0.93,0.28s-0.47,0.43-0.62,0.74v4.52h-1.08v-6.34h1.03   L177.37,392.23z"></path>
	<path class="st19" d="M182.7,395.35c0-0.97,0.23-1.75,0.69-2.35s1.06-0.89,1.81-0.89s1.33,0.25,1.76,0.76v-3.3h1.08v9h-1   l-0.05-0.68c-0.43,0.53-1.04,0.8-1.81,0.8s-1.33-0.3-1.8-0.9c-0.47-0.6-0.69-1.39-0.69-2.36v-0.08H182.7z M183.78,395.47   c0,0.72,0.15,1.28,0.45,1.69s0.71,0.61,1.23,0.61c0.69,0,1.19-0.31,1.51-0.93v-2.91c-0.32-0.6-0.82-0.9-1.49-0.9   c-0.53,0-0.95,0.21-1.24,0.62C183.95,394.06,183.79,394.67,183.78,395.47L183.78,395.47z"></path>
	<path class="st19" d="M193.65,397.94c-0.42,0.5-1.04,0.74-1.86,0.74c-0.68,0-1.19-0.2-1.54-0.59c-0.35-0.39-0.53-0.97-0.54-1.74   v-4.12h1.08v4.1c0,0.96,0.39,1.44,1.17,1.44c0.83,0,1.38-0.31,1.65-0.93v-4.61h1.08v6.34h-1.03L193.65,397.94L193.65,397.94z"></path>
	<path class="st19" d="M200.04,396.89c0-0.29-0.11-0.52-0.33-0.68c-0.22-0.16-0.61-0.3-1.15-0.42s-0.98-0.26-1.31-0.42   s-0.56-0.36-0.71-0.59c-0.15-0.23-0.23-0.5-0.23-0.81c0-0.52,0.22-0.96,0.66-1.32c0.44-0.36,1-0.54,1.68-0.54   c0.72,0,1.3,0.19,1.75,0.56s0.67,0.85,0.67,1.42h-1.09c0-0.3-0.13-0.55-0.38-0.77s-0.57-0.32-0.95-0.32s-0.7,0.09-0.93,0.26   c-0.23,0.17-0.33,0.4-0.33,0.67c0,0.26,0.1,0.46,0.31,0.59c0.21,0.13,0.58,0.26,1.12,0.38c0.54,0.12,0.98,0.27,1.32,0.43   c0.34,0.16,0.58,0.37,0.75,0.61c0.17,0.24,0.24,0.52,0.24,0.86c0,0.57-0.23,1.02-0.68,1.36s-1.04,0.51-1.76,0.51   c-0.51,0-0.96-0.09-1.35-0.27c-0.39-0.18-0.7-0.43-0.92-0.75s-0.33-0.67-0.33-1.05h1.08c0.02,0.36,0.17,0.65,0.44,0.86   c0.27,0.21,0.63,0.32,1.08,0.32c0.41,0,0.74-0.08,0.99-0.25c0.25-0.17,0.37-0.39,0.37-0.67L200.04,396.89z"></path>
	<path class="st19" d="M204.01,390.69v1.54h1.18v0.84h-1.18v3.94c0,0.25,0.05,0.44,0.16,0.57s0.29,0.19,0.54,0.19   c0.12,0,0.3-0.02,0.52-0.07v0.87c-0.29,0.08-0.56,0.12-0.83,0.12c-0.48,0-0.85-0.15-1.1-0.44s-0.37-0.71-0.37-1.25v-3.93h-1.15   v-0.84h1.15v-1.54H204.01z"></path>
	<path class="st19" d="M209.52,393.2c-0.16-0.03-0.34-0.04-0.53-0.04c-0.71,0-1.19,0.3-1.45,0.91v4.5h-1.08v-6.34h1.05l0.02,0.73   c0.36-0.57,0.86-0.85,1.51-0.85c0.21,0,0.37,0.03,0.48,0.08V393.2z"></path>
	<path class="st19" d="M210.52,390.55c0-0.18,0.05-0.32,0.16-0.45c0.11-0.13,0.27-0.18,0.48-0.18s0.37,0.06,0.48,0.18   s0.16,0.27,0.16,0.45s-0.05,0.32-0.16,0.44s-0.27,0.18-0.48,0.18s-0.37-0.06-0.48-0.18S210.52,390.73,210.52,390.55z    M211.69,398.57h-1.08v-6.34h1.08V398.57z"></path>
	<path class="st19" d="M216.06,398.69c-0.86,0-1.56-0.28-2.1-0.85s-0.81-1.32-0.81-2.26v-0.2c0-0.63,0.12-1.19,0.36-1.68   s0.58-0.88,1.01-1.16s0.9-0.42,1.4-0.42c0.82,0,1.46,0.27,1.92,0.81c0.46,0.54,0.69,1.32,0.69,2.33v0.45h-4.29   c0.02,0.62,0.2,1.13,0.55,1.51c0.35,0.38,0.79,0.58,1.33,0.58c0.38,0,0.71-0.08,0.97-0.23s0.5-0.36,0.7-0.62l0.66,0.52   C217.92,398.29,217.12,398.69,216.06,398.69L216.06,398.69z M215.93,393.01c-0.44,0-0.8,0.16-1.1,0.48   c-0.3,0.32-0.48,0.76-0.55,1.34h3.18v-0.08c-0.03-0.55-0.18-0.98-0.45-1.28C216.74,393.17,216.39,393.02,215.93,393.01   L215.93,393.01z"></path>
	<path class="st19" d="M220.97,398.57h-1.08v-9h1.08V398.57z"></path>
	<path class="st19" d="M223.88,398.57h-1.08v-9h1.08V398.57z"></path>
	<path class="st19" d="M228.24,398.69c-0.86,0-1.56-0.28-2.1-0.85s-0.81-1.32-0.81-2.26v-0.2c0-0.63,0.12-1.19,0.36-1.68   s0.58-0.88,1.01-1.16s0.9-0.42,1.4-0.42c0.82,0,1.46,0.27,1.92,0.81c0.46,0.54,0.69,1.32,0.69,2.33v0.45h-4.29   c0.02,0.62,0.2,1.13,0.55,1.51c0.35,0.38,0.79,0.58,1.33,0.58c0.38,0,0.71-0.08,0.97-0.23s0.5-0.36,0.7-0.62l0.66,0.52   C230.1,398.29,229.3,398.69,228.24,398.69L228.24,398.69z M228.11,393.01c-0.44,0-0.8,0.16-1.1,0.48c-0.3,0.32-0.48,0.76-0.55,1.34   h3.18v-0.08c-0.03-0.55-0.18-0.98-0.45-1.28C228.92,393.17,228.57,393.02,228.11,393.01L228.11,393.01z"></path>
</g>
<g>
	<g>
		<path d="M25.65,356h-1.09v-7.22l-2.19,0.8v-0.98l3.11-1.17h0.17V356L25.65,356z"></path>
		<path d="M33.08,347.47v0.92h-0.2c-0.84,0.02-1.52,0.27-2.02,0.75s-0.79,1.17-0.87,2.04c0.45-0.52,1.06-0.77,1.84-0.77    s1.33,0.26,1.78,0.79s0.67,1.2,0.67,2.03c0,0.88-0.24,1.58-0.72,2.11s-1.12,0.79-1.92,0.79s-1.48-0.31-1.99-0.94    s-0.76-1.43-0.76-2.42v-0.42c0-1.57,0.33-2.77,1-3.6s1.67-1.25,2.99-1.27h0.19L33.08,347.47z M31.66,351.31    c-0.37,0-0.71,0.11-1.03,0.33s-0.53,0.5-0.65,0.84v0.4c0,0.7,0.16,1.27,0.47,1.7s0.71,0.64,1.18,0.64s0.87-0.18,1.15-0.54    s0.42-0.83,0.42-1.41s-0.14-1.06-0.42-1.42S32.12,351.31,31.66,351.31L31.66,351.31z"></path>
		<path d="M40.91,352.36c0,1.27-0.22,2.21-0.65,2.83s-1.11,0.93-2.03,0.93s-1.58-0.3-2.02-0.91s-0.66-1.5-0.68-2.7v-1.45    c0-1.25,0.22-2.19,0.65-2.79s1.11-0.91,2.04-0.91s1.59,0.29,2.03,0.88s0.66,1.5,0.67,2.72L40.91,352.36L40.91,352.36z     M39.83,350.88c0-0.92-0.13-1.59-0.39-2.01s-0.67-0.63-1.22-0.63s-0.96,0.21-1.21,0.63s-0.38,1.06-0.39,1.93v1.73    c0,0.92,0.13,1.6,0.4,2.04s0.67,0.66,1.22,0.66s0.93-0.21,1.19-0.62s0.4-1.07,0.41-1.96v-1.78L39.83,350.88z"></path>
		<path d="M47.65,352.36c0,1.27-0.22,2.21-0.65,2.83s-1.11,0.93-2.03,0.93s-1.58-0.3-2.02-0.91s-0.66-1.5-0.68-2.7v-1.45    c0-1.25,0.22-2.19,0.65-2.79s1.11-0.91,2.04-0.91s1.59,0.29,2.03,0.88s0.66,1.5,0.67,2.72L47.65,352.36L47.65,352.36z     M46.57,350.88c0-0.92-0.13-1.59-0.39-2.01s-0.67-0.63-1.22-0.63s-0.96,0.21-1.21,0.63s-0.38,1.06-0.39,1.93v1.73    c0,0.92,0.13,1.6,0.4,2.04s0.67,0.66,1.22,0.66s0.93-0.21,1.19-0.62s0.4-1.07,0.41-1.96v-1.78L46.57,350.88z"></path>
	</g>
	<g>
		<path d="M95.79,356H94.7v-7.22l-2.19,0.8v-0.98l3.11-1.17h0.17V356L95.79,356z"></path>
		<path d="M104.48,348.08l-3.53,7.92h-1.14l3.52-7.64h-4.62v-0.89h5.77L104.48,348.08L104.48,348.08z"></path>
		<path d="M111.06,352.36c0,1.27-0.22,2.21-0.65,2.83s-1.11,0.93-2.03,0.93s-1.58-0.3-2.02-0.91s-0.66-1.5-0.68-2.7v-1.45    c0-1.25,0.22-2.19,0.65-2.79s1.11-0.91,2.04-0.91s1.59,0.29,2.03,0.88s0.66,1.5,0.67,2.72v1.41L111.06,352.36z M109.98,350.88    c0-0.92-0.13-1.59-0.39-2.01s-0.67-0.63-1.22-0.63s-0.96,0.21-1.21,0.63s-0.38,1.06-0.39,1.93v1.73c0,0.92,0.13,1.6,0.4,2.04    s0.67,0.66,1.22,0.66s0.93-0.21,1.19-0.62s0.4-1.07,0.41-1.96v-1.78L109.98,350.88z"></path>
		<path d="M117.8,352.36c0,1.27-0.22,2.21-0.65,2.83s-1.11,0.93-2.03,0.93s-1.58-0.3-2.02-0.91s-0.66-1.5-0.68-2.7v-1.45    c0-1.25,0.22-2.19,0.65-2.79s1.11-0.91,2.04-0.91s1.59,0.29,2.03,0.88s0.66,1.5,0.67,2.72v1.41L117.8,352.36z M116.72,350.88    c0-0.92-0.13-1.59-0.39-2.01s-0.67-0.63-1.22-0.63s-0.96,0.21-1.21,0.63s-0.38,1.06-0.39,1.93v1.73c0,0.92,0.13,1.6,0.4,2.04    s0.67,0.66,1.22,0.66s0.93-0.21,1.19-0.62s0.4-1.07,0.41-1.96v-1.78L116.72,350.88z"></path>
	</g>
	<g>
		<path d="M164.66,356h-1.09v-7.22l-2.19,0.8v-0.98l3.11-1.17h0.17V356L164.66,356z"></path>
		<path d="M173.01,349.7c0,0.43-0.11,0.8-0.34,1.14s-0.53,0.59-0.91,0.78c0.45,0.19,0.8,0.47,1.06,0.84s0.39,0.78,0.39,1.25    c0,0.74-0.25,1.33-0.75,1.76s-1.15,0.66-1.97,0.66s-1.48-0.22-1.97-0.66s-0.74-1.03-0.74-1.76c0-0.46,0.13-0.88,0.38-1.25    s0.6-0.65,1.05-0.84c-0.38-0.19-0.68-0.45-0.9-0.78s-0.33-0.71-0.33-1.13c0-0.72,0.23-1.29,0.69-1.71s1.07-0.63,1.82-0.63    s1.36,0.21,1.82,0.63s0.69,0.99,0.69,1.71L173.01,349.7z M172.13,353.68c0-0.48-0.15-0.87-0.45-1.17s-0.7-0.45-1.19-0.45    s-0.88,0.15-1.17,0.45s-0.44,0.69-0.44,1.17s0.14,0.87,0.43,1.14s0.69,0.42,1.2,0.42s0.91-0.14,1.2-0.42    S172.14,354.16,172.13,353.68L172.13,353.68z M170.5,348.25c-0.43,0-0.77,0.13-1.03,0.4s-0.4,0.62-0.4,1.08s0.13,0.78,0.39,1.05    s0.61,0.4,1.04,0.4s0.78-0.13,1.04-0.4s0.39-0.62,0.39-1.05s-0.13-0.79-0.4-1.06S170.92,348.26,170.5,348.25L170.5,348.25z"></path>
		<path d="M179.93,352.36c0,1.27-0.22,2.21-0.65,2.83s-1.11,0.93-2.03,0.93s-1.58-0.3-2.02-0.91s-0.66-1.5-0.68-2.7v-1.45    c0-1.25,0.22-2.19,0.65-2.79s1.11-0.91,2.04-0.91s1.59,0.29,2.03,0.88s0.66,1.5,0.67,2.72L179.93,352.36L179.93,352.36z     M178.85,350.88c0-0.92-0.13-1.59-0.39-2.01s-0.67-0.63-1.22-0.63s-0.96,0.21-1.21,0.63s-0.38,1.06-0.39,1.93v1.73    c0,0.92,0.13,1.6,0.4,2.04s0.67,0.66,1.22,0.66s0.93-0.21,1.19-0.62s0.4-1.07,0.41-1.96L178.85,350.88L178.85,350.88z"></path>
		<path d="M186.66,352.36c0,1.27-0.22,2.21-0.65,2.83s-1.11,0.93-2.03,0.93s-1.58-0.3-2.02-0.91s-0.66-1.5-0.68-2.7v-1.45    c0-1.25,0.22-2.19,0.65-2.79s1.11-0.91,2.04-0.91s1.59,0.29,2.03,0.88s0.66,1.5,0.67,2.72L186.66,352.36L186.66,352.36z     M185.58,350.88c0-0.92-0.13-1.59-0.39-2.01s-0.67-0.63-1.22-0.63s-0.96,0.21-1.21,0.63s-0.38,1.06-0.39,1.93v1.73    c0,0.92,0.13,1.6,0.4,2.04s0.67,0.66,1.22,0.66s0.93-0.21,1.19-0.62s0.4-1.07,0.41-1.96L185.58,350.88L185.58,350.88z"></path>
	</g>
	<g>
		<path d="M233.09,356H232v-7.22l-2.19,0.8v-0.98l3.11-1.17h0.17V356L233.09,356z"></path>
		<path d="M240.42,352.25c-0.23,0.27-0.5,0.49-0.81,0.65s-0.66,0.25-1.03,0.25c-0.49,0-0.92-0.12-1.29-0.36s-0.65-0.58-0.85-1.02    s-0.3-0.92-0.3-1.46c0-0.57,0.11-1.08,0.33-1.54s0.52-0.81,0.92-1.05s0.86-0.36,1.39-0.36c0.84,0,1.51,0.32,2,0.95    s0.73,1.49,0.73,2.58v0.32c0,1.66-0.33,2.87-0.98,3.64s-1.65,1.16-2.97,1.17h-0.21v-0.92h0.23c0.89-0.02,1.58-0.25,2.06-0.7    s0.74-1.16,0.79-2.14L240.42,352.25z M238.75,352.25c0.36,0,0.7-0.11,1-0.33s0.53-0.5,0.67-0.83v-0.43c0-0.71-0.15-1.29-0.46-1.73    s-0.7-0.67-1.17-0.67s-0.86,0.18-1.15,0.55s-0.43,0.85-0.43,1.44s0.14,1.06,0.42,1.44s0.65,0.57,1.12,0.57V352.25z"></path>
		<path d="M248.35,352.36c0,1.27-0.22,2.21-0.65,2.83s-1.11,0.93-2.03,0.93s-1.58-0.3-2.02-0.91s-0.66-1.5-0.68-2.7v-1.45    c0-1.25,0.22-2.19,0.65-2.79s1.11-0.91,2.04-0.91s1.59,0.29,2.03,0.88s0.66,1.5,0.67,2.72L248.35,352.36L248.35,352.36z     M247.27,350.88c0-0.92-0.13-1.59-0.39-2.01s-0.67-0.63-1.22-0.63s-0.96,0.21-1.21,0.63s-0.38,1.06-0.39,1.93v1.73    c0,0.92,0.13,1.6,0.4,2.04s0.67,0.66,1.22,0.66s0.93-0.21,1.19-0.62s0.4-1.07,0.41-1.96L247.27,350.88L247.27,350.88z"></path>
		<path d="M255.09,352.36c0,1.27-0.22,2.21-0.65,2.83s-1.11,0.93-2.03,0.93s-1.58-0.3-2.02-0.91s-0.66-1.5-0.68-2.7v-1.45    c0-1.25,0.22-2.19,0.65-2.79s1.11-0.91,2.04-0.91s1.59,0.29,2.03,0.88s0.66,1.5,0.67,2.72L255.09,352.36L255.09,352.36z     M254.01,350.88c0-0.92-0.13-1.59-0.39-2.01s-0.67-0.63-1.22-0.63s-0.96,0.21-1.21,0.63s-0.38,1.06-0.39,1.93v1.73    c0,0.92,0.13,1.6,0.4,2.04s0.67,0.66,1.22,0.66s0.93-0.21,1.19-0.62s0.4-1.07,0.41-1.96L254.01,350.88L254.01,350.88z"></path>
	</g>
	<g>
		<path d="M304.76,356h-5.59v-0.78l2.95-3.28c0.44-0.5,0.74-0.9,0.91-1.21s0.25-0.63,0.25-0.96c0-0.45-0.13-0.81-0.4-1.1    s-0.63-0.43-1.08-0.43c-0.54,0-0.96,0.15-1.26,0.46s-0.45,0.73-0.45,1.28h-1.08c0-0.79,0.25-1.42,0.76-1.9s1.18-0.73,2.03-0.73    c0.79,0,1.42,0.21,1.88,0.62s0.69,0.97,0.69,1.66c0,0.84-0.54,1.84-1.61,3l-2.29,2.48h4.28L304.76,356L304.76,356z"></path>
		<path d="M311.26,352.36c0,1.27-0.22,2.21-0.65,2.83s-1.11,0.93-2.03,0.93s-1.58-0.3-2.02-0.91s-0.66-1.5-0.68-2.7v-1.45    c0-1.25,0.22-2.19,0.65-2.79s1.11-0.91,2.04-0.91s1.59,0.29,2.03,0.88s0.66,1.5,0.67,2.72v1.41L311.26,352.36z M310.18,350.88    c0-0.92-0.13-1.59-0.39-2.01s-0.67-0.63-1.22-0.63s-0.96,0.21-1.21,0.63s-0.38,1.06-0.39,1.93v1.73c0,0.92,0.13,1.6,0.4,2.04    s0.67,0.66,1.22,0.66s0.93-0.21,1.19-0.62s0.4-1.07,0.41-1.96L310.18,350.88L310.18,350.88z"></path>
		<path d="M318,352.36c0,1.27-0.22,2.21-0.65,2.83s-1.11,0.93-2.03,0.93s-1.58-0.3-2.02-0.91s-0.66-1.5-0.68-2.7v-1.45    c0-1.25,0.22-2.19,0.65-2.79s1.11-0.91,2.04-0.91s1.59,0.29,2.03,0.88s0.66,1.5,0.67,2.72v1.41L318,352.36z M316.92,350.88    c0-0.92-0.13-1.59-0.39-2.01s-0.67-0.63-1.22-0.63s-0.96,0.21-1.21,0.63s-0.38,1.06-0.39,1.93v1.73c0,0.92,0.13,1.6,0.4,2.04    s0.67,0.66,1.22,0.66s0.93-0.21,1.19-0.62s0.4-1.07,0.41-1.96L316.92,350.88L316.92,350.88z"></path>
		<path d="M324.74,352.36c0,1.27-0.22,2.21-0.65,2.83s-1.11,0.93-2.03,0.93s-1.58-0.3-2.02-0.91s-0.66-1.5-0.68-2.7v-1.45    c0-1.25,0.22-2.19,0.65-2.79s1.11-0.91,2.04-0.91s1.59,0.29,2.03,0.88s0.66,1.5,0.67,2.72v1.41L324.74,352.36z M323.66,350.88    c0-0.92-0.13-1.59-0.39-2.01s-0.67-0.63-1.22-0.63s-0.96,0.21-1.21,0.63s-0.38,1.06-0.39,1.93v1.73c0,0.92,0.13,1.6,0.4,2.04    s0.67,0.66,1.22,0.66s0.93-0.21,1.19-0.62s0.4-1.07,0.41-1.96L323.66,350.88L323.66,350.88z"></path>
	</g>
	<g>
		<path d="M293.8,364.2c0-0.71,0.09-1.38,0.28-2.03s0.47-1.24,0.85-1.77c0.37-0.53,0.76-0.91,1.17-1.12l0.18,0.57    c-0.46,0.35-0.83,0.88-1.12,1.6s-0.45,1.52-0.48,2.41v0.4c0,1.21,0.22,2.25,0.66,3.14c0.27,0.53,0.58,0.95,0.95,1.25l-0.18,0.53    c-0.42-0.23-0.81-0.62-1.19-1.16c-0.74-1.06-1.11-2.33-1.11-3.81L293.8,364.2z"></path>
		<path d="M300.24,366.97c-0.05-0.1-0.09-0.28-0.12-0.53c-0.4,0.42-0.88,0.63-1.44,0.63c-0.5,0-0.91-0.14-1.23-0.42    s-0.48-0.64-0.48-1.08c0-0.53,0.2-0.94,0.6-1.23s0.97-0.44,1.69-0.44h0.84v-0.4c0-0.3-0.09-0.54-0.27-0.72s-0.45-0.27-0.8-0.27    c-0.31,0-0.57,0.08-0.78,0.23c-0.21,0.16-0.31,0.34-0.31,0.57h-0.87c0-0.25,0.09-0.5,0.27-0.73c0.18-0.24,0.42-0.42,0.73-0.56    c0.31-0.14,0.65-0.21,1.01-0.21c0.58,0,1.04,0.15,1.37,0.44s0.5,0.69,0.52,1.21v2.33c0,0.47,0.06,0.84,0.18,1.11v0.08    L300.24,366.97L300.24,366.97z M298.8,366.31c0.27,0,0.53-0.07,0.77-0.21s0.42-0.32,0.53-0.55v-1.04h-0.68    c-1.06,0-1.59,0.31-1.59,0.93c0,0.27,0.09,0.48,0.27,0.64C298.28,366.23,298.51,366.31,298.8,366.31L298.8,366.31z"></path>
		<path d="M303.15,361.9l0.03,0.64c0.39-0.49,0.89-0.73,1.52-0.73c1.07,0,1.61,0.6,1.62,1.81v3.35h-0.87v-3.35    c0-0.37-0.09-0.64-0.25-0.81s-0.42-0.26-0.77-0.26c-0.28,0-0.53,0.08-0.74,0.23c-0.21,0.15-0.38,0.35-0.5,0.59v3.61h-0.87v-5.07    L303.15,361.9L303.15,361.9z"></path>
		<path d="M308.44,361.9l0.03,0.64c0.39-0.49,0.89-0.73,1.52-0.73c1.07,0,1.61,0.6,1.62,1.81v3.35h-0.87v-3.35    c0-0.37-0.09-0.64-0.25-0.81s-0.42-0.26-0.77-0.26c-0.28,0-0.53,0.08-0.74,0.23c-0.21,0.15-0.38,0.35-0.5,0.59v3.61h-0.87v-5.07    L308.44,361.9L308.44,361.9z"></path>
		<path d="M315.02,367.06c-0.69,0-1.25-0.23-1.68-0.68s-0.65-1.05-0.65-1.81v-0.16c0-0.5,0.1-0.95,0.29-1.35s0.46-0.7,0.81-0.93    c0.35-0.22,0.72-0.33,1.12-0.33c0.66,0,1.17,0.22,1.54,0.65s0.55,1.06,0.55,1.86v0.36h-3.43c0.01,0.5,0.16,0.9,0.44,1.21    s0.63,0.46,1.07,0.46c0.31,0,0.57-0.06,0.78-0.19c0.21-0.12,0.4-0.29,0.56-0.5l0.53,0.41c-0.42,0.65-1.06,0.98-1.91,0.98    L315.02,367.06z M314.91,362.52c-0.35,0-0.64,0.13-0.88,0.38s-0.38,0.61-0.44,1.07h2.54v-0.07c-0.02-0.44-0.14-0.78-0.36-1.02    S315.27,362.52,314.91,362.52L314.91,362.52z M315.33,359.78h1.05l-1.26,1.38h-0.7l0.9-1.38H315.33z"></path>
		<path d="M320.1,367.06c-0.69,0-1.25-0.23-1.68-0.68s-0.65-1.05-0.65-1.81v-0.16c0-0.5,0.1-0.95,0.29-1.35s0.46-0.7,0.81-0.93    c0.35-0.22,0.72-0.33,1.12-0.33c0.66,0,1.17,0.22,1.54,0.65s0.55,1.06,0.55,1.86v0.36h-3.43c0.01,0.5,0.16,0.9,0.44,1.21    s0.63,0.46,1.07,0.46c0.31,0,0.57-0.06,0.78-0.19c0.21-0.12,0.4-0.29,0.56-0.5l0.53,0.41c-0.42,0.65-1.06,0.98-1.91,0.98    L320.1,367.06z M319.99,362.52c-0.35,0-0.64,0.13-0.88,0.38s-0.38,0.61-0.44,1.07h2.54v-0.07c-0.02-0.44-0.14-0.78-0.36-1.02    S320.35,362.52,319.99,362.52L319.99,362.52z"></path>
		<path d="M326.03,365.62c0-0.23-0.09-0.42-0.26-0.54c-0.18-0.13-0.48-0.24-0.92-0.33s-0.79-0.21-1.04-0.34    c-0.26-0.13-0.45-0.29-0.57-0.47s-0.19-0.4-0.19-0.65c0-0.42,0.18-0.77,0.53-1.05c0.35-0.29,0.8-0.43,1.35-0.43    c0.57,0,1.04,0.15,1.4,0.45s0.54,0.68,0.54,1.14H326c0-0.24-0.1-0.44-0.3-0.61c-0.2-0.17-0.46-0.26-0.76-0.26    s-0.56,0.07-0.74,0.21c-0.18,0.14-0.27,0.32-0.27,0.54c0,0.21,0.08,0.37,0.25,0.47c0.17,0.11,0.46,0.21,0.9,0.3    c0.43,0.1,0.78,0.21,1.05,0.35c0.27,0.13,0.47,0.3,0.6,0.49s0.19,0.42,0.19,0.69c0,0.45-0.18,0.82-0.54,1.09    c-0.36,0.27-0.83,0.41-1.41,0.41c-0.41,0-0.77-0.07-1.08-0.22c-0.31-0.14-0.56-0.34-0.73-0.6c-0.18-0.26-0.26-0.54-0.26-0.84h0.87    c0.02,0.29,0.13,0.52,0.35,0.69s0.5,0.26,0.86,0.26c0.33,0,0.59-0.07,0.79-0.2s0.3-0.31,0.3-0.53L326.03,365.62z"></path>
		<path d="M330.03,364.25c0,0.7-0.09,1.36-0.27,2s-0.46,1.23-0.84,1.77c-0.38,0.54-0.77,0.92-1.18,1.15l-0.18-0.53    c0.48-0.37,0.87-0.94,1.16-1.72s0.44-1.64,0.45-2.58v-0.15c0-0.66-0.07-1.27-0.21-1.83c-0.14-0.56-0.33-1.07-0.57-1.52    s-0.52-0.79-0.83-1.04l0.18-0.53c0.41,0.23,0.8,0.61,1.18,1.14c0.37,0.53,0.65,1.12,0.84,1.77c0.19,0.64,0.28,1.33,0.28,2.07    L330.03,364.25z"></path>
	</g>
</g>
<g>
	<polyline class="st20" points="30.39,36.59 34.86,29.76 39.8,38.88 34.86,38.88 34.85,38.88 34.85,337.94 331.65,337.94    331.65,342.88 340.76,337.94 333.94,333.47  "></polyline>
	<polyline class="st20" points="312,337.94 312,39.18 316.94,39.18 312,30.06 307.53,36.88  "></polyline>
</g>
<g>
	<path class="st19" d="M13.79,49.04c0,0.43-0.11,0.8-0.34,1.14s-0.53,0.59-0.91,0.78c0.45,0.19,0.8,0.47,1.06,0.84   s0.39,0.78,0.39,1.25c0,0.74-0.25,1.33-0.75,1.76s-1.15,0.66-1.97,0.66s-1.48-0.22-1.97-0.66s-0.74-1.03-0.74-1.76   c0-0.46,0.13-0.88,0.38-1.25s0.6-0.65,1.05-0.84c-0.38-0.19-0.68-0.45-0.9-0.78s-0.33-0.71-0.33-1.13c0-0.72,0.23-1.29,0.69-1.71   s1.07-0.63,1.82-0.63s1.36,0.21,1.82,0.63s0.69,0.99,0.69,1.71L13.79,49.04z M12.91,53.02c0-0.48-0.15-0.87-0.45-1.17   s-0.7-0.45-1.19-0.45s-0.88,0.15-1.17,0.45s-0.44,0.69-0.44,1.17s0.14,0.87,0.43,1.14s0.69,0.42,1.2,0.42s0.91-0.14,1.2-0.42   s0.43-0.66,0.43-1.14H12.91z M11.28,47.59c-0.43,0-0.77,0.13-1.03,0.4s-0.4,0.62-0.4,1.08s0.13,0.78,0.39,1.05s0.61,0.4,1.04,0.4   s0.78-0.13,1.04-0.4s0.39-0.62,0.39-1.05s-0.13-0.79-0.4-1.06s-0.61-0.41-1.03-0.41L11.28,47.59z"></path>
	<path class="st19" d="M20.94,55.34h-5.59v-0.78l2.95-3.28c0.44-0.5,0.74-0.9,0.91-1.21s0.25-0.63,0.25-0.96   c0-0.45-0.13-0.81-0.4-1.1s-0.63-0.43-1.08-0.43c-0.54,0-0.96,0.15-1.26,0.46s-0.45,0.73-0.45,1.28h-1.08   c0-0.79,0.25-1.42,0.76-1.9s1.18-0.73,2.03-0.73c0.79,0,1.42,0.21,1.88,0.62s0.69,0.97,0.69,1.66c0,0.84-0.54,1.84-1.61,3   l-2.29,2.48h4.28L20.94,55.34L20.94,55.34z"></path>
	<path class="st19" d="M27.44,51.71c0,1.27-0.22,2.21-0.65,2.83s-1.11,0.93-2.03,0.93s-1.58-0.3-2.02-0.91s-0.66-1.5-0.68-2.7v-1.45   c0-1.25,0.22-2.19,0.65-2.79s1.11-0.91,2.04-0.91s1.59,0.29,2.03,0.88s0.66,1.5,0.67,2.72v1.41L27.44,51.71z M26.36,50.23   c0-0.92-0.13-1.59-0.39-2.01s-0.67-0.63-1.22-0.63s-0.96,0.21-1.21,0.63s-0.38,1.06-0.39,1.93v1.73c0,0.92,0.13,1.6,0.4,2.04   s0.67,0.66,1.22,0.66s0.93-0.21,1.19-0.62s0.4-1.07,0.41-1.96v-1.78L26.36,50.23z"></path>
</g>
<g>
	<path class="st19" d="M14.12,91.14l-3.53,7.92H9.45l3.52-7.64H8.35v-0.89h5.77L14.12,91.14z"></path>
	<path class="st19" d="M20.53,92.76c0,0.43-0.11,0.8-0.34,1.14s-0.53,0.59-0.91,0.78c0.45,0.19,0.8,0.47,1.06,0.84   s0.39,0.78,0.39,1.25c0,0.74-0.25,1.33-0.75,1.76s-1.15,0.66-1.97,0.66s-1.48-0.22-1.97-0.66s-0.74-1.03-0.74-1.76   c0-0.46,0.13-0.88,0.38-1.25s0.6-0.65,1.05-0.84c-0.38-0.19-0.68-0.45-0.9-0.78s-0.33-0.71-0.33-1.13c0-0.72,0.23-1.29,0.69-1.71   s1.07-0.63,1.82-0.63s1.36,0.21,1.82,0.63s0.69,0.99,0.69,1.71L20.53,92.76z M19.65,96.74c0-0.48-0.15-0.87-0.45-1.17   s-0.7-0.45-1.19-0.45s-0.88,0.15-1.17,0.45s-0.44,0.69-0.44,1.17s0.14,0.87,0.43,1.14s0.69,0.42,1.2,0.42s0.91-0.14,1.2-0.42   s0.43-0.66,0.43-1.14H19.65z M18.02,91.31c-0.43,0-0.77,0.13-1.03,0.4s-0.4,0.62-0.4,1.08s0.13,0.78,0.39,1.05s0.61,0.4,1.04,0.4   s0.78-0.13,1.04-0.4s0.39-0.62,0.39-1.05s-0.13-0.79-0.4-1.06s-0.61-0.41-1.03-0.41L18.02,91.31z"></path>
	<path class="st19" d="M27.44,95.42c0,1.27-0.22,2.21-0.65,2.83s-1.11,0.93-2.03,0.93s-1.58-0.3-2.02-0.91s-0.66-1.5-0.68-2.7v-1.45   c0-1.25,0.22-2.19,0.65-2.79s1.11-0.91,2.04-0.91s1.59,0.29,2.03,0.88s0.66,1.5,0.67,2.72v1.41L27.44,95.42z M26.36,93.94   c0-0.92-0.13-1.59-0.39-2.01s-0.67-0.63-1.22-0.63s-0.96,0.21-1.21,0.63s-0.38,1.06-0.39,1.93v1.73c0,0.92,0.13,1.6,0.4,2.04   s0.67,0.66,1.22,0.66s0.93-0.21,1.19-0.62s0.4-1.07,0.41-1.96v-1.78L26.36,93.94z"></path>
</g>
<g>
	<path class="st19" d="M14.12,134.85l-3.53,7.92H9.45l3.52-7.64H8.35v-0.89h5.77L14.12,134.85z"></path>
	<path class="st19" d="M19.93,139.91h1.18v0.88h-1.18v1.98h-1.09v-1.98h-3.88v-0.64l3.82-5.91h1.15V139.91z M16.19,139.91h2.65   v-4.18l-0.13,0.23l-2.53,3.95H16.19z"></path>
	<path class="st19" d="M27.44,139.14c0,1.27-0.22,2.21-0.65,2.83s-1.11,0.93-2.03,0.93s-1.58-0.3-2.02-0.91s-0.66-1.5-0.68-2.7   v-1.45c0-1.25,0.22-2.19,0.65-2.79s1.11-0.91,2.04-0.91s1.59,0.29,2.03,0.88s0.66,1.5,0.67,2.72v1.41L27.44,139.14z M26.36,137.66   c0-0.92-0.13-1.59-0.39-2.01s-0.67-0.63-1.22-0.63s-0.96,0.21-1.21,0.63s-0.38,1.06-0.39,1.93v1.73c0,0.92,0.13,1.6,0.4,2.04   s0.67,0.66,1.22,0.66s0.93-0.21,1.19-0.62s0.4-1.07,0.41-1.96v-1.78L26.36,137.66z"></path>
</g>
<g>
	<path class="st19" d="M14.12,178.57l-3.53,7.92H9.45l3.52-7.64H8.35v-0.89h5.77L14.12,178.57z"></path>
	<path class="st19" d="M20.7,182.85c0,1.27-0.22,2.21-0.65,2.83s-1.11,0.93-2.03,0.93s-1.58-0.3-2.02-0.91s-0.66-1.5-0.68-2.7v-1.45   c0-1.25,0.22-2.19,0.65-2.79c0.43-0.6,1.11-0.91,2.04-0.91s1.59,0.29,2.03,0.88s0.66,1.5,0.67,2.72v1.41L20.7,182.85z    M19.62,181.37c0-0.92-0.13-1.59-0.39-2.01s-0.67-0.63-1.22-0.63s-0.96,0.21-1.21,0.63s-0.38,1.06-0.39,1.93v1.73   c0,0.92,0.13,1.6,0.4,2.04s0.67,0.66,1.22,0.66s0.93-0.21,1.19-0.62s0.4-1.07,0.41-1.96v-1.78L19.62,181.37z"></path>
	<path class="st19" d="M27.44,182.85c0,1.27-0.22,2.21-0.65,2.83s-1.11,0.93-2.03,0.93s-1.58-0.3-2.02-0.91s-0.66-1.5-0.68-2.7   v-1.45c0-1.25,0.22-2.19,0.65-2.79s1.11-0.91,2.04-0.91s1.59,0.29,2.03,0.88s0.66,1.5,0.67,2.72v1.41L27.44,182.85z M26.36,181.37   c0-0.92-0.13-1.59-0.39-2.01s-0.67-0.63-1.22-0.63s-0.96,0.21-1.21,0.63s-0.38,1.06-0.39,1.93v1.73c0,0.92,0.13,1.6,0.4,2.04   s0.67,0.66,1.22,0.66s0.93-0.21,1.19-0.62s0.4-1.07,0.41-1.96v-1.78L26.36,181.37z"></path>
</g>
<g>
	<path class="st19" d="M12.87,221.67v0.92h-0.2c-0.84,0.02-1.52,0.27-2.02,0.75s-0.79,1.17-0.87,2.04c0.45-0.52,1.06-0.77,1.84-0.77   s1.33,0.26,1.78,0.79s0.67,1.2,0.67,2.03c0,0.88-0.24,1.58-0.72,2.11s-1.12,0.79-1.92,0.79s-1.48-0.31-1.99-0.94   s-0.76-1.43-0.76-2.42v-0.42c0-1.57,0.33-2.77,1-3.6s1.67-1.25,2.99-1.27h0.19L12.87,221.67z M11.45,225.51   c-0.37,0-0.71,0.11-1.03,0.33s-0.53,0.5-0.65,0.84v0.4c0,0.7,0.16,1.27,0.47,1.7s0.71,0.64,1.18,0.64s0.87-0.18,1.15-0.54   s0.42-0.83,0.42-1.41s-0.14-1.06-0.42-1.42S11.91,225.51,11.45,225.51L11.45,225.51z"></path>
	<path class="st19" d="M19.61,221.67v0.92h-0.2c-0.84,0.02-1.52,0.27-2.02,0.75s-0.79,1.17-0.87,2.04c0.45-0.52,1.06-0.77,1.84-0.77   s1.33,0.26,1.78,0.79s0.67,1.2,0.67,2.03c0,0.88-0.24,1.58-0.72,2.11s-1.12,0.79-1.92,0.79s-1.48-0.31-1.99-0.94   s-0.76-1.43-0.76-2.42v-0.42c0-1.57,0.33-2.77,1-3.6s1.67-1.25,2.99-1.27h0.19L19.61,221.67z M18.19,225.51   c-0.37,0-0.71,0.11-1.03,0.33s-0.53,0.5-0.65,0.84v0.4c0,0.7,0.16,1.27,0.47,1.7s0.71,0.64,1.18,0.64s0.87-0.18,1.15-0.54   s0.42-0.83,0.42-1.41s-0.14-1.06-0.42-1.42s-0.66-0.54-1.13-0.54H18.19z"></path>
	<path class="st19" d="M27.44,226.57c0,1.27-0.22,2.21-0.65,2.83s-1.11,0.93-2.03,0.93s-1.58-0.3-2.02-0.91s-0.66-1.5-0.68-2.7   v-1.45c0-1.25,0.22-2.19,0.65-2.79s1.11-0.91,2.04-0.91s1.59,0.29,2.03,0.88s0.66,1.5,0.67,2.72v1.41L27.44,226.57z M26.36,225.09   c0-0.92-0.13-1.59-0.39-2.01s-0.67-0.63-1.22-0.63s-0.96,0.21-1.21,0.63s-0.38,1.06-0.39,1.93v1.73c0,0.92,0.13,1.6,0.4,2.04   s0.67,0.66,1.22,0.66s0.93-0.21,1.19-0.62s0.4-1.07,0.41-1.96v-1.78L26.36,225.09z"></path>
</g>
<g>
	<path class="st19" d="M12.87,265.39v0.92h-0.2c-0.84,0.02-1.52,0.27-2.02,0.75s-0.79,1.17-0.87,2.04c0.45-0.52,1.06-0.77,1.84-0.77   s1.33,0.26,1.78,0.79s0.67,1.2,0.67,2.03c0,0.88-0.24,1.58-0.72,2.11s-1.12,0.79-1.92,0.79s-1.48-0.31-1.99-0.94   s-0.76-1.43-0.76-2.42v-0.42c0-1.57,0.33-2.77,1-3.6s1.67-1.25,2.99-1.27h0.19L12.87,265.39z M11.45,269.23   c-0.37,0-0.71,0.11-1.03,0.33s-0.53,0.5-0.65,0.84v0.4c0,0.7,0.16,1.27,0.47,1.7s0.71,0.64,1.18,0.64s0.87-0.18,1.15-0.54   s0.42-0.83,0.42-1.41s-0.14-1.06-0.42-1.42S11.91,269.23,11.45,269.23L11.45,269.23z"></path>
	<path class="st19" d="M20.94,273.92h-5.59v-0.78l2.95-3.28c0.44-0.5,0.74-0.9,0.91-1.21s0.25-0.63,0.25-0.96   c0-0.45-0.13-0.81-0.4-1.1s-0.63-0.43-1.08-0.43c-0.54,0-0.96,0.15-1.26,0.46s-0.45,0.73-0.45,1.28h-1.08   c0-0.79,0.25-1.42,0.76-1.9s1.18-0.73,2.03-0.73c0.79,0,1.42,0.21,1.88,0.62s0.69,0.97,0.69,1.66c0,0.84-0.54,1.84-1.61,3   l-2.29,2.48h4.28L20.94,273.92L20.94,273.92z"></path>
	<path class="st19" d="M27.44,270.29c0,1.27-0.22,2.21-0.65,2.83s-1.11,0.93-2.03,0.93s-1.58-0.3-2.02-0.91s-0.66-1.5-0.68-2.7   v-1.45c0-1.25,0.22-2.19,0.65-2.79s1.11-0.91,2.04-0.91s1.59,0.29,2.03,0.88s0.66,1.5,0.67,2.72v1.41L27.44,270.29z M26.36,268.81   c0-0.92-0.13-1.59-0.39-2.01s-0.67-0.63-1.22-0.63s-0.96,0.21-1.21,0.63s-0.38,1.06-0.39,1.93v1.73c0,0.92,0.13,1.6,0.4,2.04   s0.67,0.66,1.22,0.66s0.93-0.21,1.19-0.62s0.4-1.07,0.41-1.96v-1.78L26.36,268.81z"></path>
</g>
<g>
	<path class="st19" d="M9.11,313.36l0.43-4.25h4.37v1h-3.45l-0.26,2.33c0.42-0.25,0.89-0.37,1.42-0.37c0.78,0,1.39,0.26,1.85,0.77   s0.69,1.21,0.69,2.08s-0.24,1.57-0.71,2.08s-1.14,0.76-1.99,0.76c-0.75,0-1.37-0.21-1.85-0.63s-0.75-1-0.81-1.73h1.03   c0.07,0.49,0.24,0.86,0.52,1.1s0.65,0.37,1.11,0.37c0.5,0,0.9-0.17,1.19-0.52s0.43-0.82,0.43-1.42c0-0.57-0.16-1.03-0.47-1.37   s-0.72-0.52-1.24-0.52c-0.47,0-0.84,0.1-1.11,0.31l-0.29,0.23l-0.87-0.22L9.11,313.36z"></path>
	<path class="st19" d="M20.53,311.33c0,0.43-0.11,0.8-0.34,1.14s-0.53,0.59-0.91,0.78c0.45,0.19,0.8,0.47,1.06,0.84   s0.39,0.78,0.39,1.25c0,0.74-0.25,1.33-0.75,1.76s-1.15,0.66-1.97,0.66s-1.48-0.22-1.97-0.66s-0.74-1.03-0.74-1.76   c0-0.46,0.13-0.88,0.38-1.25s0.6-0.65,1.05-0.84c-0.38-0.19-0.68-0.45-0.9-0.78s-0.33-0.71-0.33-1.13c0-0.72,0.23-1.29,0.69-1.71   s1.07-0.63,1.82-0.63s1.36,0.21,1.82,0.63s0.69,0.99,0.69,1.71L20.53,311.33z M19.65,315.31c0-0.48-0.15-0.87-0.45-1.17   s-0.7-0.45-1.19-0.45s-0.88,0.15-1.17,0.45s-0.44,0.69-0.44,1.17s0.14,0.87,0.43,1.14s0.69,0.42,1.2,0.42s0.91-0.14,1.2-0.42   s0.43-0.66,0.43-1.14H19.65z M18.02,309.88c-0.43,0-0.77,0.13-1.03,0.4s-0.4,0.62-0.4,1.08s0.13,0.78,0.39,1.05s0.61,0.4,1.04,0.4   s0.78-0.13,1.04-0.4s0.39-0.62,0.39-1.05s-0.13-0.79-0.4-1.06S18.44,309.89,18.02,309.88L18.02,309.88z"></path>
	<path class="st19" d="M27.44,314c0,1.27-0.22,2.21-0.65,2.83s-1.11,0.93-2.03,0.93s-1.58-0.3-2.02-0.91s-0.66-1.5-0.68-2.7v-1.45   c0-1.25,0.22-2.19,0.65-2.79s1.11-0.91,2.04-0.91s1.59,0.29,2.03,0.88s0.66,1.5,0.67,2.72v1.41L27.44,314z M26.36,312.52   c0-0.92-0.13-1.59-0.39-2.01s-0.67-0.63-1.22-0.63s-0.96,0.21-1.21,0.63s-0.38,1.06-0.39,1.93v1.73c0,0.92,0.13,1.6,0.4,2.04   s0.67,0.66,1.22,0.66s0.93-0.21,1.19-0.62s0.4-1.07,0.41-1.96v-1.78L26.36,312.52z"></path>
</g>
<g>
	<path class="st19" d="M12.89,18.29c-0.11,0.9-0.44,1.6-1,2.09s-1.31,0.74-2.24,0.74c-1.01,0-1.82-0.36-2.42-1.08   s-0.91-1.69-0.91-2.9v-0.82c0-0.79,0.14-1.49,0.42-2.09s0.68-1.06,1.2-1.39s1.12-0.48,1.8-0.48c0.91,0,1.63,0.25,2.18,0.76   s0.87,1.21,0.96,2.1h-1.13c-0.1-0.68-0.31-1.18-0.64-1.48s-0.78-0.46-1.37-0.46c-0.72,0-1.28,0.27-1.69,0.8s-0.61,1.29-0.61,2.27   v0.83c0,0.93,0.19,1.66,0.58,2.21s0.93,0.82,1.62,0.82c0.62,0,1.1-0.14,1.44-0.42s0.56-0.78,0.67-1.48h1.13L12.89,18.29z"></path>
	<path class="st19" d="M20.99,17.01c0,0.84-0.14,1.57-0.42,2.19s-0.68,1.1-1.2,1.43s-1.12,0.49-1.8,0.49s-1.27-0.17-1.79-0.5   s-0.92-0.8-1.21-1.41s-0.43-1.32-0.44-2.12v-0.62c0-0.82,0.14-1.54,0.43-2.17s0.69-1.11,1.21-1.44s1.12-0.5,1.79-0.5   s1.29,0.17,1.81,0.5s0.92,0.81,1.2,1.44s0.42,1.36,0.42,2.19v0.54L20.99,17.01z M19.87,16.46c0-1.01-0.2-1.79-0.61-2.33   s-0.97-0.81-1.71-0.81s-1.27,0.27-1.68,0.81s-0.62,1.29-0.63,2.25v0.63c0,0.98,0.21,1.75,0.62,2.31s0.98,0.84,1.7,0.84   s1.29-0.26,1.69-0.79s0.6-1.29,0.62-2.28L19.87,16.46z"></path>
	<path class="st19" d="M25.69,22h-3.51v-0.63l1.76-1.65c0.43-0.4,0.64-0.73,0.64-1.01c0-0.19-0.06-0.35-0.19-0.47   s-0.3-0.18-0.54-0.18c-0.29,0-0.51,0.07-0.65,0.22s-0.21,0.34-0.21,0.56h-0.92c0-0.45,0.16-0.81,0.49-1.1s0.75-0.43,1.26-0.43   s0.92,0.12,1.22,0.37s0.45,0.59,0.45,1.02c0,0.41-0.21,0.82-0.63,1.24l-0.49,0.46l-1.03,0.85h2.34V22H25.69z"></path>
	<path class="st19" d="M29.83,17.54c0-0.88,0.12-1.73,0.35-2.54s0.59-1.55,1.06-2.21s0.96-1.13,1.46-1.41l0.22,0.71   c-0.57,0.44-1.04,1.11-1.4,2s-0.57,1.9-0.6,3.02v0.5c0,1.51,0.27,2.82,0.82,3.93c0.33,0.66,0.73,1.18,1.18,1.56l-0.22,0.66   c-0.52-0.29-1.02-0.77-1.49-1.45C30.29,20.98,29.83,19.39,29.83,17.54L29.83,17.54z"></path>
	<path class="st19" d="M36.61,21.12c-0.86,0-1.56-0.28-2.1-0.85s-0.81-1.32-0.81-2.26v-0.2c0-0.63,0.12-1.19,0.36-1.68   s0.58-0.88,1.01-1.16s0.9-0.42,1.4-0.42c0.82,0,1.46,0.27,1.92,0.81s0.69,1.32,0.69,2.33v0.45h-4.29c0.02,0.62,0.2,1.13,0.55,1.51   s0.79,0.58,1.33,0.58c0.38,0,0.71-0.08,0.97-0.23s0.5-0.36,0.7-0.62L39,19.9C38.47,20.72,37.67,21.12,36.61,21.12z M36.48,15.44   c-0.44,0-0.8,0.16-1.1,0.48s-0.48,0.76-0.55,1.34h3.18v-0.08c-0.03-0.55-0.18-0.98-0.45-1.28s-0.62-0.45-1.08-0.45V15.44z"></path>
	<path class="st19" d="M41.36,14.66l0.04,0.8c0.48-0.61,1.12-0.91,1.9-0.91c1.34,0,2.02,0.76,2.03,2.27v4.19h-1.08v-4.2   c0-0.46-0.11-0.79-0.31-1.01s-0.52-0.33-0.96-0.33c-0.35,0-0.66,0.09-0.93,0.28s-0.47,0.43-0.62,0.74v4.52h-1.08v-6.34h1.03   L41.36,14.66z"></path>
	<path class="st19" d="M50.95,14.66l0.03,0.7c0.46-0.55,1.09-0.82,1.88-0.82c0.89,0,1.49,0.34,1.81,1.02   c0.21-0.3,0.49-0.55,0.82-0.74s0.74-0.28,1.2-0.28c1.39,0,2.1,0.74,2.12,2.21V21h-1.08v-4.18c0-0.45-0.1-0.79-0.31-1.02   s-0.55-0.34-1.04-0.34c-0.4,0-0.74,0.12-1,0.36c-0.26,0.24-0.42,0.56-0.46,0.97V21h-1.09v-4.15c0-0.92-0.45-1.38-1.35-1.38   c-0.71,0-1.2,0.3-1.46,0.91v4.63h-1.08v-6.34h1.03L50.95,14.66z"></path>
	<path class="st19" d="M60.45,12.98c0-0.18,0.05-0.32,0.16-0.45s0.27-0.18,0.48-0.18s0.37,0.06,0.48,0.18s0.16,0.27,0.16,0.45   s-0.05,0.32-0.16,0.44s-0.27,0.18-0.48,0.18s-0.37-0.06-0.48-0.18S60.45,13.16,60.45,12.98z M61.62,21h-1.08v-6.34h1.08V21z"></path>
	<path class="st19" d="M64.53,21h-1.08v-9h1.08V21z"></path>
	<path class="st19" d="M67.45,21h-1.08v-9h1.08V21z"></path>
	<path class="st19" d="M69.19,12.98c0-0.18,0.05-0.32,0.16-0.45s0.27-0.18,0.48-0.18s0.37,0.06,0.48,0.18s0.16,0.27,0.16,0.45   s-0.05,0.32-0.16,0.44s-0.27,0.18-0.48,0.18s-0.37-0.06-0.48-0.18S69.19,13.16,69.19,12.98z M70.36,21h-1.08v-6.34h1.08V21z"></path>
	<path class="st19" d="M76.01,21c-0.06-0.12-0.11-0.35-0.15-0.67c-0.5,0.52-1.11,0.79-1.8,0.79c-0.62,0-1.14-0.18-1.54-0.53   s-0.6-0.8-0.6-1.34c0-0.66,0.25-1.17,0.75-1.54s1.21-0.55,2.12-0.55h1.05v-0.5c0-0.38-0.11-0.68-0.34-0.91s-0.56-0.34-1-0.34   c-0.39,0-0.71,0.1-0.97,0.29s-0.39,0.43-0.39,0.71h-1.09c0-0.32,0.11-0.62,0.34-0.92s0.53-0.53,0.91-0.7s0.81-0.26,1.27-0.26   c0.73,0,1.3,0.18,1.72,0.55s0.63,0.87,0.64,1.51v2.92c0,0.58,0.07,1.04,0.22,1.39v0.09h-1.14L76.01,21z M74.21,20.17   c0.34,0,0.66-0.09,0.97-0.26s0.53-0.4,0.66-0.69v-1.3h-0.85c-1.33,0-1.99,0.39-1.99,1.17c0,0.34,0.11,0.61,0.34,0.8   s0.52,0.29,0.87,0.29L74.21,20.17z"></path>
	<path class="st19" d="M81.68,15.63c-0.16-0.03-0.34-0.04-0.53-0.04c-0.71,0-1.19,0.3-1.45,0.91V21h-1.08v-6.34h1.05l0.02,0.73   c0.36-0.57,0.86-0.85,1.51-0.85c0.21,0,0.37,0.03,0.48,0.08C81.68,14.62,81.68,15.63,81.68,15.63z"></path>
	<path class="st19" d="M82.31,17.78c0-0.97,0.23-1.75,0.69-2.35s1.06-0.89,1.81-0.89s1.33,0.25,1.76,0.76V12h1.08v9h-1l-0.05-0.68   c-0.43,0.53-1.04,0.8-1.81,0.8s-1.33-0.3-1.8-0.9s-0.69-1.39-0.69-2.36v-0.08L82.31,17.78z M83.39,17.9c0,0.72,0.15,1.28,0.45,1.69   s0.71,0.61,1.23,0.61c0.69,0,1.19-0.31,1.51-0.93v-2.91c-0.32-0.6-0.82-0.9-1.49-0.9c-0.53,0-0.95,0.21-1.24,0.62   c-0.29,0.41-0.45,1.02-0.45,1.82L83.39,17.9z"></path>
	<path class="st19" d="M93.03,19.32c0-0.29-0.11-0.52-0.33-0.68s-0.61-0.3-1.15-0.42s-0.98-0.26-1.31-0.42s-0.56-0.36-0.71-0.59   s-0.23-0.5-0.23-0.81c0-0.52,0.22-0.96,0.66-1.32s1-0.54,1.68-0.54c0.72,0,1.3,0.19,1.75,0.56s0.67,0.85,0.67,1.42h-1.09   c0-0.3-0.13-0.55-0.38-0.77s-0.57-0.32-0.95-0.32s-0.7,0.09-0.93,0.26s-0.33,0.4-0.33,0.67c0,0.26,0.1,0.46,0.31,0.59   s0.58,0.26,1.12,0.38s0.98,0.27,1.32,0.43s0.58,0.37,0.75,0.61s0.24,0.52,0.24,0.86c0,0.57-0.23,1.02-0.68,1.36   s-1.04,0.51-1.76,0.51c-0.51,0-0.96-0.09-1.35-0.27s-0.7-0.43-0.92-0.75s-0.33-0.67-0.33-1.05h1.08c0.02,0.36,0.17,0.65,0.44,0.86   s0.63,0.32,1.08,0.32c0.41,0,0.74-0.08,0.99-0.25s0.37-0.39,0.37-0.67L93.03,19.32z"></path>
	<path class="st19" d="M98.23,17.78c0-0.97,0.23-1.75,0.69-2.35s1.06-0.89,1.81-0.89s1.33,0.25,1.76,0.76V12h1.08v9h-1l-0.05-0.68   c-0.43,0.53-1.04,0.8-1.81,0.8s-1.33-0.3-1.8-0.9s-0.69-1.39-0.69-2.36v-0.08L98.23,17.78z M99.31,17.9c0,0.72,0.15,1.28,0.45,1.69   s0.71,0.61,1.23,0.61c0.69,0,1.19-0.31,1.51-0.93v-2.91c-0.32-0.6-0.82-0.9-1.49-0.9c-0.53,0-0.95,0.21-1.24,0.62   c-0.29,0.41-0.45,1.02-0.45,1.82L99.31,17.9z"></path>
	<path class="st19" d="M107.89,21.12c-0.86,0-1.56-0.28-2.1-0.85s-0.81-1.32-0.81-2.26v-0.2c0-0.63,0.12-1.19,0.36-1.68   s0.58-0.88,1.01-1.16s0.9-0.42,1.4-0.42c0.82,0,1.46,0.27,1.92,0.81s0.69,1.32,0.69,2.33v0.45h-4.29c0.02,0.62,0.2,1.13,0.55,1.51   s0.79,0.58,1.33,0.58c0.38,0,0.71-0.08,0.97-0.23s0.5-0.36,0.7-0.62l0.66,0.52C109.75,20.72,108.95,21.12,107.89,21.12   L107.89,21.12z M107.76,15.44c-0.44,0-0.8,0.16-1.1,0.48s-0.48,0.76-0.55,1.34h3.18v-0.08c-0.03-0.55-0.18-0.98-0.45-1.28   s-0.62-0.45-1.08-0.45V15.44z"></path>
	<path class="st19" d="M116.06,13.12v1.54h1.18v0.84h-1.18v3.94c0,0.25,0.05,0.44,0.16,0.57s0.29,0.19,0.54,0.19   c0.12,0,0.3-0.02,0.52-0.07V21c-0.29,0.08-0.56,0.12-0.83,0.12c-0.48,0-0.85-0.15-1.1-0.44s-0.37-0.71-0.37-1.25V15.5h-1.15v-0.84   h1.15v-1.54L116.06,13.12z"></path>
	<path class="st19" d="M118.11,17.77c0-0.62,0.12-1.18,0.37-1.68s0.58-0.88,1.02-1.15s0.93-0.4,1.49-0.4c0.86,0,1.56,0.3,2.09,0.9   c0.53,0.6,0.8,1.39,0.8,2.38v0.08c0,0.62-0.12,1.17-0.35,1.66s-0.57,0.87-1.01,1.15s-0.94,0.41-1.51,0.41   c-0.86,0-1.56-0.3-2.09-0.9s-0.8-1.39-0.8-2.37L118.11,17.77L118.11,17.77z M119.2,17.9c0,0.7,0.16,1.27,0.49,1.69   s0.76,0.64,1.31,0.64s0.99-0.22,1.31-0.65s0.49-1.04,0.49-1.81c0-0.7-0.17-1.26-0.5-1.69s-0.77-0.65-1.32-0.65   s-0.97,0.21-1.29,0.64C119.37,16.5,119.2,17.11,119.2,17.9z"></path>
	<path class="st19" d="M126.26,14.66l0.04,0.8c0.48-0.61,1.12-0.91,1.9-0.91c1.34,0,2.02,0.76,2.03,2.27v4.19h-1.08v-4.2   c0-0.46-0.11-0.79-0.31-1.01s-0.52-0.33-0.96-0.33c-0.35,0-0.66,0.09-0.93,0.28s-0.47,0.43-0.62,0.74v4.52h-1.08v-6.34h1.03   L126.26,14.66z"></path>
	<path class="st19" d="M132.88,14.66l0.04,0.8c0.48-0.61,1.12-0.91,1.9-0.91c1.34,0,2.02,0.76,2.03,2.27v4.19h-1.08v-4.2   c0-0.46-0.11-0.79-0.31-1.01s-0.52-0.33-0.96-0.33c-0.35,0-0.66,0.09-0.93,0.28s-0.47,0.43-0.62,0.74v4.52h-1.08v-6.34h1.03   L132.88,14.66z"></path>
	<path class="st19" d="M141.11,21.12c-0.86,0-1.56-0.28-2.1-0.85s-0.81-1.32-0.81-2.26v-0.2c0-0.63,0.12-1.19,0.36-1.68   s0.58-0.88,1.01-1.16s0.9-0.42,1.4-0.42c0.82,0,1.46,0.27,1.92,0.81s0.69,1.32,0.69,2.33v0.45h-4.29c0.02,0.62,0.2,1.13,0.55,1.51   s0.79,0.58,1.33,0.58c0.38,0,0.71-0.08,0.97-0.23s0.5-0.36,0.7-0.62l0.66,0.52C142.97,20.72,142.17,21.12,141.11,21.12z    M140.98,15.44c-0.44,0-0.8,0.16-1.1,0.48s-0.48,0.76-0.55,1.34h3.18v-0.08c-0.03-0.55-0.18-0.98-0.45-1.28s-0.62-0.45-1.08-0.45   L140.98,15.44z"></path>
	<path class="st19" d="M148.53,19.32c0-0.29-0.11-0.52-0.33-0.68s-0.61-0.3-1.15-0.42s-0.98-0.26-1.31-0.42s-0.56-0.36-0.71-0.59   s-0.23-0.5-0.23-0.81c0-0.52,0.22-0.96,0.66-1.32s1-0.54,1.68-0.54c0.72,0,1.3,0.19,1.75,0.56s0.67,0.85,0.67,1.42h-1.09   c0-0.3-0.13-0.55-0.38-0.77s-0.57-0.32-0.95-0.32s-0.7,0.09-0.93,0.26s-0.33,0.4-0.33,0.67c0,0.26,0.1,0.46,0.31,0.59   s0.58,0.26,1.12,0.38s0.98,0.27,1.32,0.43s0.58,0.37,0.75,0.61s0.24,0.52,0.24,0.86c0,0.57-0.23,1.02-0.68,1.36   s-1.04,0.51-1.76,0.51c-0.51,0-0.96-0.09-1.35-0.27s-0.7-0.43-0.92-0.75s-0.33-0.67-0.33-1.05h1.08c0.02,0.36,0.17,0.65,0.44,0.86   s0.63,0.32,1.08,0.32c0.41,0,0.74-0.08,0.99-0.25s0.37-0.39,0.37-0.67L148.53,19.32z"></path>
	<path class="st19" d="M153.53,17.6c0,0.87-0.11,1.71-0.34,2.5s-0.58,1.54-1.05,2.21s-0.96,1.16-1.48,1.44l-0.23-0.66   c0.6-0.46,1.08-1.18,1.45-2.15s0.55-2.05,0.56-3.23v-0.19c0-0.82-0.09-1.58-0.26-2.29s-0.41-1.34-0.72-1.9s-0.65-0.99-1.03-1.31   l0.23-0.66c0.52,0.29,1.01,0.76,1.47,1.43s0.82,1.4,1.05,2.21s0.35,1.67,0.35,2.58L153.53,17.6z"></path>
</g>
<line class="st18" x1="156.18" y1="18.53" x2="191.65" y2="18.53"></line>
<line class="st21" x1="318.29" y1="18.53" x2="353.76" y2="18.53"></line>
<g>
	<path class="st22" d="M209.14,13.74h-2.74v7.61h-1.12v-7.61h-2.74v-0.92h6.6V13.74z"></path>
	<path class="st22" d="M212.28,21.47c-0.86,0-1.56-0.28-2.1-0.85s-0.81-1.32-0.81-2.26v-0.2c0-0.63,0.12-1.19,0.36-1.68   s0.58-0.88,1.01-1.16s0.9-0.42,1.4-0.42c0.82,0,1.46,0.27,1.92,0.81s0.69,1.32,0.69,2.33v0.45h-4.29c0.02,0.62,0.2,1.13,0.55,1.51   s0.79,0.58,1.33,0.58c0.38,0,0.71-0.08,0.97-0.23s0.5-0.36,0.7-0.62l0.66,0.52C214.14,21.07,213.34,21.47,212.28,21.47z    M212.15,15.79c-0.44,0-0.8,0.16-1.1,0.48s-0.48,0.76-0.55,1.34h3.18v-0.08c-0.03-0.55-0.18-0.98-0.45-1.28   S212.61,15.8,212.15,15.79L212.15,15.79z"></path>
	<path class="st22" d="M217.03,15.01l0.03,0.7c0.46-0.55,1.09-0.82,1.88-0.82c0.89,0,1.49,0.34,1.81,1.02   c0.21-0.3,0.49-0.55,0.82-0.74s0.74-0.28,1.2-0.28c1.39,0,2.1,0.74,2.12,2.21v4.25h-1.08v-4.18c0-0.45-0.1-0.79-0.31-1.02   s-0.55-0.34-1.04-0.34c-0.4,0-0.74,0.12-1,0.36c-0.26,0.24-0.42,0.56-0.46,0.97v4.21h-1.09V17.2c0-0.92-0.45-1.38-1.35-1.38   c-0.71,0-1.2,0.3-1.46,0.91v4.63h-1.08v-6.34h1.03L217.03,15.01z"></path>
	<path class="st22" d="M231.88,18.25c0,0.96-0.22,1.74-0.66,2.33s-1.04,0.88-1.79,0.88s-1.38-0.24-1.82-0.73v3.05h-1.08v-8.77h0.99   l0.05,0.7c0.44-0.55,1.05-0.82,1.84-0.82s1.36,0.29,1.81,0.86s0.67,1.37,0.67,2.4L231.88,18.25L231.88,18.25z M230.8,18.13   c0-0.71-0.15-1.28-0.46-1.69s-0.72-0.62-1.25-0.62c-0.66,0-1.15,0.29-1.48,0.87v3.03c0.32,0.58,0.82,0.87,1.49,0.87   c0.52,0,0.93-0.21,1.24-0.62S230.8,18.95,230.8,18.13L230.8,18.13z"></path>
	<path class="st22" d="M235.89,21.47c-0.86,0-1.56-0.28-2.1-0.85s-0.81-1.32-0.81-2.26v-0.2c0-0.63,0.12-1.19,0.36-1.68   s0.58-0.88,1.01-1.16s0.9-0.42,1.4-0.42c0.82,0,1.46,0.27,1.92,0.81s0.69,1.32,0.69,2.33v0.45h-4.29c0.02,0.62,0.2,1.13,0.55,1.51   s0.79,0.58,1.33,0.58c0.38,0,0.71-0.08,0.97-0.23s0.5-0.36,0.7-0.62l0.66,0.52C237.75,21.07,236.95,21.47,235.89,21.47z    M235.76,15.79c-0.44,0-0.8,0.16-1.1,0.48s-0.48,0.76-0.55,1.34h3.18v-0.08c-0.03-0.55-0.18-0.98-0.45-1.28   S236.22,15.8,235.76,15.79L235.76,15.79z M236.29,12.36h1.31l-1.57,1.72h-0.87L236.29,12.36z"></path>
	<path class="st22" d="M242.68,15.99c-0.16-0.03-0.34-0.04-0.53-0.04c-0.71,0-1.19,0.3-1.45,0.91v4.5h-1.08v-6.34h1.05l0.02,0.73   c0.36-0.57,0.86-0.85,1.51-0.85c0.21,0,0.37,0.03,0.48,0.08V15.99z"></path>
	<path class="st22" d="M247.36,21.35c-0.06-0.12-0.11-0.35-0.15-0.67c-0.5,0.52-1.11,0.79-1.8,0.79c-0.62,0-1.14-0.18-1.54-0.53   s-0.6-0.8-0.6-1.34c0-0.66,0.25-1.17,0.75-1.54s1.21-0.55,2.12-0.55h1.05v-0.5c0-0.38-0.11-0.68-0.34-0.91s-0.56-0.34-1-0.34   c-0.39,0-0.71,0.1-0.97,0.29s-0.39,0.43-0.39,0.71h-1.09c0-0.32,0.11-0.62,0.34-0.92s0.53-0.53,0.91-0.7s0.81-0.26,1.27-0.26   c0.73,0,1.3,0.18,1.72,0.55s0.63,0.87,0.64,1.51v2.92c0,0.58,0.07,1.04,0.22,1.39v0.09L247.36,21.35L247.36,21.35z M245.56,20.52   c0.34,0,0.66-0.09,0.97-0.26s0.53-0.4,0.66-0.69v-1.3h-0.85c-1.33,0-1.99,0.39-1.99,1.17c0,0.34,0.11,0.61,0.34,0.8   s0.52,0.29,0.87,0.29L245.56,20.52z"></path>
	<path class="st22" d="M251.44,13.48v1.54h1.18v0.84h-1.18v3.94c0,0.25,0.05,0.44,0.16,0.57s0.29,0.19,0.54,0.19   c0.12,0,0.3-0.02,0.52-0.07v0.87c-0.29,0.08-0.56,0.12-0.83,0.12c-0.48,0-0.85-0.15-1.1-0.44s-0.37-0.71-0.37-1.25v-3.93h-1.15   v-0.84h1.15v-1.54L251.44,13.48z"></path>
	<path class="st22" d="M257.8,20.73c-0.42,0.5-1.04,0.74-1.86,0.74c-0.68,0-1.19-0.2-1.54-0.59s-0.53-0.97-0.54-1.74v-4.12h1.08v4.1   c0,0.96,0.39,1.44,1.17,1.44c0.83,0,1.38-0.31,1.65-0.93v-4.61h1.08v6.34h-1.03L257.8,20.73L257.8,20.73z"></path>
	<path class="st22" d="M263.57,15.99c-0.16-0.03-0.34-0.04-0.53-0.04c-0.71,0-1.19,0.3-1.45,0.91v4.5h-1.08v-6.34h1.05l0.02,0.73   c0.36-0.57,0.86-0.85,1.51-0.85c0.21,0,0.37,0.03,0.48,0.08V15.99z"></path>
	<path class="st22" d="M267.09,21.47c-0.86,0-1.56-0.28-2.1-0.85s-0.81-1.32-0.81-2.26v-0.2c0-0.63,0.12-1.19,0.36-1.68   s0.58-0.88,1.01-1.16s0.9-0.42,1.4-0.42c0.82,0,1.46,0.27,1.92,0.81s0.69,1.32,0.69,2.33v0.45h-4.29c0.02,0.62,0.2,1.13,0.55,1.51   s0.79,0.58,1.33,0.58c0.38,0,0.71-0.08,0.97-0.23s0.5-0.36,0.7-0.62l0.66,0.52C268.95,21.07,268.15,21.47,267.09,21.47   L267.09,21.47z M266.96,15.79c-0.44,0-0.8,0.16-1.1,0.48s-0.48,0.76-0.55,1.34h3.18v-0.08c-0.03-0.55-0.18-0.98-0.45-1.28   S267.42,15.8,266.96,15.79L266.96,15.79z"></path>
	<path class="st22" d="M274.5,19.67c0-0.29-0.11-0.52-0.33-0.68s-0.61-0.3-1.15-0.42s-0.98-0.26-1.31-0.42s-0.56-0.36-0.71-0.59   s-0.23-0.5-0.23-0.81c0-0.52,0.22-0.96,0.66-1.32s1-0.54,1.68-0.54c0.72,0,1.3,0.19,1.75,0.56s0.67,0.85,0.67,1.42h-1.09   c0-0.3-0.13-0.55-0.38-0.77s-0.57-0.32-0.95-0.32s-0.7,0.09-0.93,0.26s-0.33,0.4-0.33,0.67c0,0.26,0.1,0.46,0.31,0.59   s0.58,0.26,1.12,0.38s0.98,0.27,1.32,0.43s0.58,0.37,0.75,0.61s0.24,0.52,0.24,0.86c0,0.57-0.23,1.02-0.68,1.36   s-1.04,0.51-1.76,0.51c-0.51,0-0.96-0.09-1.35-0.27s-0.7-0.43-0.92-0.75s-0.33-0.67-0.33-1.05h1.08c0.02,0.36,0.17,0.65,0.44,0.86   s0.63,0.32,1.08,0.32c0.41,0,0.74-0.08,0.99-0.25s0.37-0.39,0.37-0.67L274.5,19.67z"></path>
	<path class="st22" d="M279.93,17.89c0-0.88,0.12-1.73,0.35-2.54s0.59-1.55,1.06-2.21s0.96-1.13,1.46-1.41l0.22,0.71   c-0.57,0.44-1.04,1.11-1.4,2s-0.57,1.9-0.6,3.02v0.5c0,1.51,0.27,2.82,0.82,3.93c0.33,0.66,0.73,1.18,1.18,1.56l-0.22,0.66   c-0.52-0.29-1.02-0.77-1.49-1.45C280.39,21.33,279.93,19.74,279.93,17.89L279.93,17.89z"></path>
	<path class="st22" d="M286.7,21.47c-0.86,0-1.56-0.28-2.1-0.85s-0.81-1.32-0.81-2.26v-0.2c0-0.63,0.12-1.19,0.36-1.68   s0.58-0.88,1.01-1.16s0.9-0.42,1.4-0.42c0.82,0,1.46,0.27,1.92,0.81s0.69,1.32,0.69,2.33v0.45h-4.29c0.02,0.62,0.2,1.13,0.55,1.51   s0.79,0.58,1.33,0.58c0.38,0,0.71-0.08,0.97-0.23s0.5-0.36,0.7-0.62l0.66,0.52C288.56,21.07,287.76,21.47,286.7,21.47L286.7,21.47z    M286.57,15.79c-0.44,0-0.8,0.16-1.1,0.48s-0.48,0.76-0.55,1.34h3.18v-0.08c-0.03-0.55-0.18-0.98-0.45-1.28   S287.03,15.8,286.57,15.79L286.57,15.79z"></path>
	<path class="st22" d="M291.45,15.01l0.04,0.8c0.48-0.61,1.12-0.91,1.9-0.91c1.34,0,2.02,0.76,2.03,2.27v4.19h-1.08v-4.2   c0-0.46-0.11-0.79-0.31-1.01s-0.52-0.33-0.96-0.33c-0.35,0-0.66,0.09-0.93,0.28s-0.47,0.43-0.62,0.74v4.52h-1.08v-6.34h1.03   L291.45,15.01z"></path>
	<path class="st22" d="M299.96,14.23c0-0.41,0.15-0.76,0.44-1.07s0.64-0.46,1.06-0.46s0.75,0.15,1.04,0.45s0.43,0.66,0.43,1.07   s-0.14,0.77-0.43,1.06s-0.63,0.44-1.04,0.44s-0.76-0.15-1.05-0.44s-0.44-0.65-0.44-1.06L299.96,14.23z M301.45,14.98   c0.21,0,0.39-0.07,0.53-0.21s0.22-0.32,0.22-0.54s-0.07-0.41-0.22-0.56s-0.32-0.22-0.53-0.22s-0.4,0.08-0.54,0.23   c-0.15,0.15-0.22,0.34-0.22,0.55s0.07,0.39,0.22,0.53S301.24,14.98,301.45,14.98z"></path>
	<path class="st22" d="M310.95,18.65c-0.11,0.9-0.44,1.6-1,2.09s-1.31,0.74-2.24,0.74c-1.01,0-1.82-0.36-2.42-1.08   s-0.91-1.69-0.91-2.9v-0.82c0-0.79,0.14-1.49,0.42-2.09s0.68-1.06,1.2-1.39s1.12-0.48,1.8-0.48c0.91,0,1.63,0.25,2.18,0.76   s0.87,1.21,0.96,2.1h-1.13c-0.1-0.68-0.31-1.18-0.64-1.48s-0.78-0.46-1.37-0.46c-0.72,0-1.28,0.27-1.69,0.8s-0.61,1.29-0.61,2.27   v0.83c0,0.93,0.19,1.66,0.58,2.21s0.93,0.82,1.62,0.82c0.62,0,1.1-0.14,1.44-0.42s0.56-0.78,0.67-1.48h1.13L310.95,18.65z"></path>
	<path class="st22" d="M314.66,17.95c0,0.87-0.11,1.71-0.34,2.5s-0.58,1.54-1.05,2.21s-0.96,1.16-1.48,1.44l-0.23-0.66   c0.6-0.46,1.08-1.18,1.45-2.15s0.55-2.05,0.56-3.23v-0.19c0-0.82-0.09-1.58-0.26-2.29s-0.41-1.34-0.72-1.9s-0.65-0.99-1.03-1.31   l0.23-0.66c0.52,0.29,1.01,0.76,1.47,1.43s0.82,1.4,1.05,2.21s0.35,1.67,0.35,2.58V17.95z"></path>
</g>
<g>
	<path class="st22" d="M322.95,35.69h-1.09v-7.22l-2.19,0.8v-0.98l3.11-1.17h0.17V35.69z"></path>
	<path class="st22" d="M330.71,32.82h1.18v0.88h-1.18v1.98h-1.09V33.7h-3.88v-0.64l3.82-5.91h1.15V32.82z M326.97,32.82h2.65v-4.18   l-0.13,0.23l-2.53,3.95H326.97z"></path>
	<path class="st22" d="M332.94,37.39l-0.62-0.42c0.37-0.51,0.56-1.04,0.57-1.58v-0.98h1.06v0.85c0,0.39-0.1,0.79-0.29,1.18   s-0.44,0.71-0.73,0.95H332.94z"></path>
	<path class="st22" d="M335.72,31.41l0.43-4.25h4.37v1h-3.45l-0.26,2.33c0.42-0.25,0.89-0.37,1.42-0.37c0.78,0,1.39,0.26,1.85,0.77   s0.69,1.21,0.69,2.08s-0.24,1.57-0.71,2.08s-1.14,0.76-1.99,0.76c-0.75,0-1.37-0.21-1.85-0.63s-0.75-1-0.81-1.73h1.03   c0.07,0.49,0.24,0.86,0.52,1.1s0.65,0.37,1.11,0.37c0.5,0,0.9-0.17,1.19-0.52s0.43-0.82,0.43-1.42c0-0.57-0.16-1.03-0.47-1.37   s-0.72-0.52-1.24-0.52c-0.47,0-0.84,0.1-1.11,0.31l-0.29,0.23l-0.87-0.22L335.72,31.41z"></path>
</g>
<g>
	<path class="st22" d="M323.48,99.06h-1.09v-7.22l-2.19,0.8v-0.98l3.11-1.17h0.17V99.06z"></path>
	<path class="st22" d="M331.24,96.2h1.18v0.88h-1.18v1.98h-1.09v-1.98h-3.88v-0.64l3.82-5.91h1.15V96.2z M327.5,96.2h2.65v-4.18   l-0.13,0.23l-2.53,3.95H327.5z"></path>
	<path class="st22" d="M333.47,100.76l-0.62-0.42c0.37-0.51,0.56-1.04,0.57-1.58v-0.98h1.06v0.85c0,0.39-0.1,0.79-0.29,1.18   s-0.44,0.71-0.73,0.95L333.47,100.76z"></path>
	<path class="st22" d="M337.33,94.27h0.81c0.51,0,0.91-0.14,1.21-0.4s0.44-0.62,0.44-1.06c0-1-0.5-1.5-1.49-1.5   c-0.47,0-0.84,0.13-1.12,0.4s-0.42,0.62-0.42,1.06h-1.08c0-0.68,0.25-1.24,0.74-1.68s1.12-0.67,1.88-0.67   c0.8,0,1.44,0.21,1.89,0.64s0.69,1.02,0.69,1.78c0,0.37-0.12,0.73-0.36,1.08s-0.57,0.61-0.98,0.78c0.47,0.15,0.83,0.39,1.09,0.74   s0.38,0.76,0.38,1.26c0,0.77-0.25,1.37-0.75,1.82s-1.15,0.67-1.95,0.67s-1.45-0.22-1.95-0.65s-0.75-1.01-0.75-1.72h1.09   c0,0.45,0.15,0.81,0.44,1.08s0.69,0.4,1.18,0.4c0.52,0,0.92-0.14,1.2-0.41s0.42-0.67,0.42-1.18s-0.15-0.88-0.46-1.14   s-0.74-0.4-1.32-0.41h-0.81v-0.88L337.33,94.27z"></path>
</g>
<g>
	<path class="st22" d="M323.48,161.45h-1.09v-7.22l-2.19,0.8v-0.98l3.11-1.17h0.17V161.45L323.48,161.45z"></path>
	<path class="st22" d="M331.24,158.59h1.18v0.88h-1.18v1.98h-1.09v-1.98h-3.88v-0.64l3.82-5.91h1.15V158.59z M327.5,158.59h2.65   v-4.18l-0.13,0.23l-2.53,3.95H327.5z"></path>
	<path class="st22" d="M333.47,163.15l-0.62-0.42c0.37-0.51,0.56-1.04,0.57-1.58v-0.98h1.06v0.85c0,0.39-0.1,0.79-0.29,1.18   s-0.44,0.71-0.73,0.95H333.47z"></path>
	<path class="st22" d="M339.32,161.45h-1.09v-7.22l-2.19,0.8v-0.98l3.11-1.17h0.17V161.45L339.32,161.45z"></path>
</g>
<g>
	<path class="st22" d="M323.48,228.51h-1.09v-7.22l-2.19,0.8v-0.98l3.11-1.17h0.17V228.51L323.48,228.51z"></path>
	<path class="st22" d="M328.24,223.72h0.81c0.51,0,0.91-0.14,1.21-0.4s0.44-0.62,0.44-1.06c0-1-0.5-1.5-1.49-1.5   c-0.47,0-0.84,0.13-1.12,0.4s-0.42,0.62-0.42,1.06h-1.08c0-0.68,0.25-1.24,0.74-1.68s1.12-0.67,1.88-0.67   c0.8,0,1.44,0.21,1.89,0.64s0.69,1.02,0.69,1.78c0,0.37-0.12,0.73-0.36,1.08s-0.57,0.61-0.98,0.78c0.47,0.15,0.83,0.39,1.09,0.74   s0.38,0.76,0.38,1.26c0,0.77-0.25,1.37-0.75,1.82s-1.15,0.67-1.95,0.67s-1.45-0.22-1.95-0.65s-0.75-1.01-0.75-1.72h1.09   c0,0.45,0.15,0.81,0.44,1.08s0.69,0.4,1.18,0.4c0.52,0,0.92-0.14,1.2-0.41s0.42-0.67,0.42-1.18s-0.15-0.88-0.46-1.14   s-0.74-0.4-1.32-0.41h-0.81v-0.88L328.24,223.72z"></path>
	<path class="st22" d="M333.47,230.21l-0.62-0.42c0.37-0.51,0.56-1.04,0.57-1.58v-0.98h1.06v0.85c0,0.39-0.1,0.79-0.29,1.18   s-0.44,0.71-0.73,0.95H333.47z"></path>
	<path class="st22" d="M339.91,224.76c-0.23,0.27-0.5,0.49-0.81,0.65s-0.66,0.25-1.03,0.25c-0.49,0-0.92-0.12-1.29-0.36   s-0.65-0.58-0.85-1.02s-0.3-0.92-0.3-1.46c0-0.57,0.11-1.08,0.33-1.54s0.52-0.81,0.92-1.05s0.86-0.36,1.39-0.36   c0.84,0,1.51,0.32,2,0.95s0.73,1.49,0.73,2.58v0.32c0,1.66-0.33,2.87-0.98,3.64s-1.65,1.16-2.97,1.17h-0.21v-0.92h0.23   c0.89-0.02,1.58-0.25,2.06-0.7s0.74-1.16,0.79-2.14L339.91,224.76z M338.24,224.76c0.36,0,0.7-0.11,1-0.33s0.53-0.5,0.67-0.83   v-0.43c0-0.71-0.15-1.29-0.46-1.73s-0.7-0.67-1.17-0.67s-0.86,0.18-1.15,0.55s-0.43,0.85-0.43,1.44s0.14,1.06,0.42,1.44   s0.65,0.57,1.12,0.57L338.24,224.76z"></path>
</g>
<g>
	<path class="st22" d="M323.48,294.43h-1.09v-7.22l-2.19,0.8v-0.98l3.11-1.17h0.17V294.43L323.48,294.43z"></path>
	<path class="st22" d="M328.24,289.64h0.81c0.51,0,0.91-0.14,1.21-0.4s0.44-0.62,0.44-1.06c0-1-0.5-1.5-1.49-1.5   c-0.47,0-0.84,0.13-1.12,0.4s-0.42,0.62-0.42,1.06h-1.08c0-0.68,0.25-1.24,0.74-1.68s1.12-0.67,1.88-0.67   c0.8,0,1.44,0.21,1.89,0.64s0.69,1.02,0.69,1.78c0,0.37-0.12,0.73-0.36,1.08s-0.57,0.61-0.98,0.78c0.47,0.15,0.83,0.39,1.09,0.74   s0.38,0.76,0.38,1.26c0,0.77-0.25,1.37-0.75,1.82s-1.15,0.67-1.95,0.67s-1.45-0.22-1.95-0.65s-0.75-1.01-0.75-1.72h1.09   c0,0.45,0.15,0.81,0.44,1.08s0.69,0.4,1.18,0.4c0.52,0,0.92-0.14,1.2-0.41s0.42-0.67,0.42-1.18s-0.15-0.88-0.46-1.14   s-0.74-0.4-1.32-0.41h-0.81v-0.88L328.24,289.64z"></path>
	<path class="st22" d="M333.47,296.13l-0.62-0.42c0.37-0.51,0.56-1.04,0.57-1.58v-0.98h1.06V294c0,0.39-0.1,0.79-0.29,1.18   s-0.44,0.71-0.73,0.95H333.47z"></path>
	<path class="st22" d="M341.26,286.51l-3.53,7.92h-1.14l3.52-7.64h-4.62v-0.89h5.77L341.26,286.51L341.26,286.51z"></path>
</g>
</svg>
